<?xml version="1.0" encoding="UTF-8" standalone="no"?>
<!DOCTYPE svg PUBLIC "-//W3C//DTD SVG 1.1//EN"
 "http://www.w3.org/Graphics/SVG/1.1/DTD/svg11.dtd">
<!-- Generated by graphviz version 2.40.1 (20161225.0304)
 -->
<!-- Title: dependencies Pages: 1 -->
<svg width="2498pt" height="211pt"
 viewBox="0.00 0.00 2498.00 211.00" xmlns="http://www.w3.org/2000/svg" xmlns:xlink="http://www.w3.org/1999/xlink">
<g id="graph0" class="graph" transform="scale(1 1) rotate(0) translate(4 207)">
<title>dependencies</title>
<polygon fill="#ffffff" stroke="transparent" points="-4,4 -4,-207 2494,-207 2494,4 -4,4"/>
<text text-anchor="start" x="1224.0091" y="-42.4" font-family="sans-serif" font-weight="bold" font-size="14.00" fill="#000000">Legend</text>
<polygon fill="#ffffb3" stroke="transparent" points="1011,-10 1011,-30 1031,-30 1031,-10 1011,-10"/>
<text text-anchor="start" x="1034.629" y="-15.4" font-family="sans-serif" font-size="14.00" fill="#000000"> &#160;Declarations</text>
<polygon fill="#8dd3c7" stroke="transparent" points="1124,-10 1124,-30 1144,-30 1144,-10 1124,-10"/>
<text text-anchor="start" x="1147.7251" y="-15.4" font-family="sans-serif" font-size="14.00" fill="#000000"> &#160;Module</text>
<polygon fill="#80b1d3" stroke="transparent" points="1210,-10 1210,-30 1230,-30 1230,-10 1210,-10"/>
<text text-anchor="start" x="1233.7812" y="-15.4" font-family="sans-serif" font-size="14.00" fill="#000000"> &#160;Bootstrap</text>
<polygon fill="#fdb462" stroke="transparent" points="1307,-10 1307,-30 1327,-30 1327,-10 1307,-10"/>
<text text-anchor="start" x="1330.6732" y="-15.4" font-family="sans-serif" font-size="14.00" fill="#000000"> &#160;Providers</text>
<polygon fill="#fb8072" stroke="transparent" points="1403,-10 1403,-30 1423,-30 1423,-10 1403,-10"/>
<text text-anchor="start" x="1426.7258" y="-15.4" font-family="sans-serif" font-size="14.00" fill="#000000"> &#160;Exports</text>
<g id="clust1" class="cluster">
<title>cluster_ContentModule</title>
<polygon fill="none" stroke="#000000" stroke-dasharray="1,5" points="8,-70 8,-195 2482,-195 2482,-70 8,-70"/>
</g>
<g id="clust2" class="cluster">
<title>cluster_ContentModule_declarations</title>
<polygon fill="none" stroke="#000000" points="16,-78 16,-130 2474,-130 2474,-78 16,-78"/>
</g>
<!-- CardConfirmationComponent -->
<g id="node1" class="node">
<title>CardConfirmationComponent</title>
<polygon fill="#ffffb3" stroke="#000000" points="2465.979,-122 2282.021,-122 2282.021,-86 2465.979,-86 2465.979,-122"/>
<text text-anchor="middle" x="2374" y="-99.8" font-family="Times,serif" font-size="14.00" fill="#000000">CardConfirmationComponent</text>
</g>
<!-- ContentModule -->
<g id="node16" class="node">
<title>ContentModule</title>
<polygon fill="#8dd3c7" stroke="#000000" points="1193.8823,-187 1190.8823,-191 1169.8823,-191 1166.8823,-187 1090.1177,-187 1090.1177,-151 1193.8823,-151 1193.8823,-187"/>
<text text-anchor="middle" x="1142" y="-164.8" font-family="Times,serif" font-size="14.00" fill="#000000">ContentModule</text>
</g>
<!-- CardConfirmationComponent&#45;&gt;ContentModule -->
<g id="edge1" class="edge">
<title>CardConfirmationComponent&#45;&gt;ContentModule</title>
<path fill="none" stroke="#000000" d="M2374,-122.3228C2374,-145.6602 2374,-183 2374,-183 2374,-183 1204.1506,-183 1204.1506,-183"/>
<polygon fill="#000000" stroke="#000000" points="1204.1506,-179.5001 1194.1506,-183 1204.1506,-186.5001 1204.1506,-179.5001"/>
</g>
<!-- CardDefaultComponent -->
<g id="node2" class="node">
<title>CardDefaultComponent</title>
<polygon fill="#ffffb3" stroke="#000000" points="2264.0226,-122 2113.9774,-122 2113.9774,-86 2264.0226,-86 2264.0226,-122"/>
<text text-anchor="middle" x="2189" y="-99.8" font-family="Times,serif" font-size="14.00" fill="#000000">CardDefaultComponent</text>
</g>
<!-- CardDefaultComponent&#45;&gt;ContentModule -->
<g id="edge2" class="edge">
<title>CardDefaultComponent&#45;&gt;ContentModule</title>
<path fill="none" stroke="#000000" d="M2189,-122.2921C2189,-144.2057 2189,-178 2189,-178 2189,-178 1203.9209,-178 1203.9209,-178"/>
<polygon fill="#000000" stroke="#000000" points="1203.9209,-174.5001 1193.9209,-178 1203.9209,-181.5001 1203.9209,-174.5001"/>
</g>
<!-- CardFormComponent -->
<g id="node3" class="node">
<title>CardFormComponent</title>
<polygon fill="#ffffb3" stroke="#000000" points="2095.3781,-122 1956.6219,-122 1956.6219,-86 2095.3781,-86 2095.3781,-122"/>
<text text-anchor="middle" x="2026" y="-99.8" font-family="Times,serif" font-size="14.00" fill="#000000">CardFormComponent</text>
</g>
<!-- CardFormComponent&#45;&gt;ContentModule -->
<g id="edge3" class="edge">
<title>CardFormComponent&#45;&gt;ContentModule</title>
<path fill="none" stroke="#000000" d="M2026,-122.0267C2026,-142.7672 2026,-174 2026,-174 2026,-174 1203.9979,-174 1203.9979,-174"/>
<polygon fill="#000000" stroke="#000000" points="1203.998,-170.5001 1193.9979,-174 1203.9979,-177.5001 1203.998,-170.5001"/>
</g>
<!-- CardFormFetchCaseComponent -->
<g id="node4" class="node">
<title>CardFormFetchCaseComponent</title>
<polygon fill="#ffffb3" stroke="#000000" points="1938.6909,-122 1741.3091,-122 1741.3091,-86 1938.6909,-86 1938.6909,-122"/>
<text text-anchor="middle" x="1840" y="-99.8" font-family="Times,serif" font-size="14.00" fill="#000000">CardFormFetchCaseComponent</text>
</g>
<!-- CardFormFetchCaseComponent&#45;&gt;ContentModule -->
<g id="edge4" class="edge">
<title>CardFormFetchCaseComponent&#45;&gt;ContentModule</title>
<path fill="none" stroke="#000000" d="M1840,-122.1061C1840,-141.3391 1840,-169 1840,-169 1840,-169 1203.8932,-169 1203.8932,-169"/>
<polygon fill="#000000" stroke="#000000" points="1203.8932,-165.5001 1193.8932,-169 1203.8932,-172.5001 1203.8932,-165.5001"/>
</g>
<!-- CardImageComponent -->
<g id="node5" class="node">
<title>CardImageComponent</title>
<polygon fill="#ffffb3" stroke="#000000" points="1723.5254,-122 1580.4746,-122 1580.4746,-86 1723.5254,-86 1723.5254,-122"/>
<text text-anchor="middle" x="1652" y="-99.8" font-family="Times,serif" font-size="14.00" fill="#000000">CardImageComponent</text>
</g>
<!-- CardImageComponent&#45;&gt;ContentModule -->
<g id="edge5" class="edge">
<title>CardImageComponent&#45;&gt;ContentModule</title>
<path fill="none" stroke="#000000" d="M1652,-122.302C1652,-140.2699 1652,-165 1652,-165 1652,-165 1204.1822,-165 1204.1822,-165"/>
<polygon fill="#000000" stroke="#000000" points="1204.1823,-161.5001 1194.1822,-165 1204.1822,-168.5001 1204.1823,-161.5001"/>
</g>
<!-- CardPatientDataComponent -->
<g id="node6" class="node">
<title>CardPatientDataComponent</title>
<polygon fill="#ffffb3" stroke="#000000" points="1561.8543,-122 1388.1457,-122 1388.1457,-86 1561.8543,-86 1561.8543,-122"/>
<text text-anchor="middle" x="1475" y="-99.8" font-family="Times,serif" font-size="14.00" fill="#000000">CardPatientDataComponent</text>
</g>
<!-- CardPatientDataComponent&#45;&gt;ContentModule -->
<g id="edge6" class="edge">
<title>CardPatientDataComponent&#45;&gt;ContentModule</title>
<path fill="none" stroke="#000000" d="M1475,-122.027C1475,-138.3976 1475,-160 1475,-160 1475,-160 1204.0313,-160 1204.0313,-160"/>
<polygon fill="#000000" stroke="#000000" points="1204.0313,-156.5001 1194.0313,-160 1204.0312,-163.5001 1204.0313,-156.5001"/>
</g>
<!-- CardTableComponent -->
<g id="node7" class="node">
<title>CardTableComponent</title>
<polygon fill="#ffffb3" stroke="#000000" points="1370.4172,-122 1229.5828,-122 1229.5828,-86 1370.4172,-86 1370.4172,-122"/>
<text text-anchor="middle" x="1300" y="-99.8" font-family="Times,serif" font-size="14.00" fill="#000000">CardTableComponent</text>
</g>
<!-- CardTableComponent&#45;&gt;ContentModule -->
<g id="edge7" class="edge">
<title>CardTableComponent&#45;&gt;ContentModule</title>
<path fill="none" stroke="#000000" d="M1300,-122.1871C1300,-137.1824 1300,-156 1300,-156 1300,-156 1204.173,-156 1204.173,-156"/>
<polygon fill="#000000" stroke="#000000" points="1204.173,-152.5001 1194.173,-156 1204.173,-159.5001 1204.173,-152.5001"/>
</g>
<!-- CardTmplComponent -->
<g id="node8" class="node">
<title>CardTmplComponent</title>
<polygon fill="#ffffb3" stroke="#000000" points="1211.3781,-122 1072.6219,-122 1072.6219,-86 1211.3781,-86 1211.3781,-122"/>
<text text-anchor="middle" x="1142" y="-99.8" font-family="Times,serif" font-size="14.00" fill="#000000">CardTmplComponent</text>
</g>
<!-- CardTmplComponent&#45;&gt;ContentModule -->
<g id="edge8" class="edge">
<title>CardTmplComponent&#45;&gt;ContentModule</title>
<path fill="none" stroke="#000000" d="M1142,-122.1061C1142,-122.1061 1142,-140.991 1142,-140.991"/>
<polygon fill="#000000" stroke="#000000" points="1138.5001,-140.9909 1142,-150.991 1145.5001,-140.991 1138.5001,-140.9909"/>
</g>
<!-- ConfirmationComponent -->
<g id="node9" class="node">
<title>ConfirmationComponent</title>
<polygon fill="#ffffb3" stroke="#000000" points="1054.2674,-122 897.7326,-122 897.7326,-86 1054.2674,-86 1054.2674,-122"/>
<text text-anchor="middle" x="976" y="-99.8" font-family="Times,serif" font-size="14.00" fill="#000000">ConfirmationComponent</text>
</g>
<!-- ConfirmationComponent&#45;&gt;ContentModule -->
<g id="edge9" class="edge">
<title>ConfirmationComponent&#45;&gt;ContentModule</title>
<path fill="none" stroke="#000000" d="M976,-122.1871C976,-137.1824 976,-156 976,-156 976,-156 1079.932,-156 1079.932,-156"/>
<polygon fill="#000000" stroke="#000000" points="1079.9321,-159.5001 1089.932,-156 1079.932,-152.5001 1079.9321,-159.5001"/>
</g>
<!-- EditCaseComponent -->
<g id="node10" class="node">
<title>EditCaseComponent</title>
<polygon fill="#ffffb3" stroke="#000000" points="879.8767,-122 748.1233,-122 748.1233,-86 879.8767,-86 879.8767,-122"/>
<text text-anchor="middle" x="814" y="-99.8" font-family="Times,serif" font-size="14.00" fill="#000000">EditCaseComponent</text>
</g>
<!-- EditCaseComponent&#45;&gt;ContentModule -->
<g id="edge10" class="edge">
<title>EditCaseComponent&#45;&gt;ContentModule</title>
<path fill="none" stroke="#000000" d="M814,-122.027C814,-138.3976 814,-160 814,-160 814,-160 1080.0274,-160 1080.0274,-160"/>
<polygon fill="#000000" stroke="#000000" points="1080.0275,-163.5001 1090.0274,-160 1080.0274,-156.5001 1080.0275,-163.5001"/>
</g>
<!-- FetchcaseComponent -->
<g id="node11" class="node">
<title>FetchcaseComponent</title>
<polygon fill="#ffffb3" stroke="#000000" points="730.024,-122 593.976,-122 593.976,-86 730.024,-86 730.024,-122"/>
<text text-anchor="middle" x="662" y="-99.8" font-family="Times,serif" font-size="14.00" fill="#000000">FetchcaseComponent</text>
</g>
<!-- FetchcaseComponent&#45;&gt;ContentModule -->
<g id="edge11" class="edge">
<title>FetchcaseComponent&#45;&gt;ContentModule</title>
<path fill="none" stroke="#000000" d="M662,-122.302C662,-140.2699 662,-165 662,-165 662,-165 1079.7178,-165 1079.7178,-165"/>
<polygon fill="#000000" stroke="#000000" points="1079.7179,-168.5001 1089.7178,-165 1079.7178,-161.5001 1079.7179,-168.5001"/>
</g>
<!-- FrontpageComponent -->
<g id="node12" class="node">
<title>FrontpageComponent</title>
<polygon fill="#ffffb3" stroke="#000000" points="576.0954,-122 437.9046,-122 437.9046,-86 576.0954,-86 576.0954,-122"/>
<text text-anchor="middle" x="507" y="-99.8" font-family="Times,serif" font-size="14.00" fill="#000000">FrontpageComponent</text>
</g>
<!-- FrontpageComponent&#45;&gt;ContentModule -->
<g id="edge12" class="edge">
<title>FrontpageComponent&#45;&gt;ContentModule</title>
<path fill="none" stroke="#000000" d="M507,-122.1061C507,-141.3391 507,-169 507,-169 507,-169 1080.0353,-169 1080.0353,-169"/>
<polygon fill="#000000" stroke="#000000" points="1080.0353,-172.5001 1090.0353,-169 1080.0352,-165.5001 1080.0353,-172.5001"/>
</g>
<!-- Page2Component -->
<g id="node13" class="node">
<title>Page2Component</title>
<polygon fill="#ffffb3" stroke="#000000" points="419.5451,-122 304.4549,-122 304.4549,-86 419.5451,-86 419.5451,-122"/>
<text text-anchor="middle" x="362" y="-99.8" font-family="Times,serif" font-size="14.00" fill="#000000">Page2Component</text>
</g>
<!-- Page2Component&#45;&gt;ContentModule -->
<g id="edge13" class="edge">
<title>Page2Component&#45;&gt;ContentModule</title>
<path fill="none" stroke="#000000" d="M362,-122.0267C362,-142.7672 362,-174 362,-174 362,-174 1079.9148,-174 1079.9148,-174"/>
<polygon fill="#000000" stroke="#000000" points="1079.9148,-177.5001 1089.9148,-174 1079.9147,-170.5001 1079.9148,-177.5001"/>
</g>
<!-- PageComponent -->
<g id="node14" class="node">
<title>PageComponent</title>
<polygon fill="#ffffb3" stroke="#000000" points="286.0452,-122 177.9548,-122 177.9548,-86 286.0452,-86 286.0452,-122"/>
<text text-anchor="middle" x="232" y="-99.8" font-family="Times,serif" font-size="14.00" fill="#000000">PageComponent</text>
</g>
<!-- PageComponent&#45;&gt;ContentModule -->
<g id="edge14" class="edge">
<title>PageComponent&#45;&gt;ContentModule</title>
<path fill="none" stroke="#000000" d="M232,-122.2921C232,-144.2057 232,-178 232,-178 232,-178 1079.806,-178 1079.806,-178"/>
<polygon fill="#000000" stroke="#000000" points="1079.806,-181.5001 1089.806,-178 1079.806,-174.5001 1079.806,-181.5001"/>
</g>
<!-- SummaryComponent -->
<g id="node15" class="node">
<title>SummaryComponent</title>
<polygon fill="#ffffb3" stroke="#000000" points="159.7716,-122 24.2284,-122 24.2284,-86 159.7716,-86 159.7716,-122"/>
<text text-anchor="middle" x="92" y="-99.8" font-family="Times,serif" font-size="14.00" fill="#000000">SummaryComponent</text>
</g>
<!-- SummaryComponent&#45;&gt;ContentModule -->
<g id="edge15" class="edge">
<title>SummaryComponent&#45;&gt;ContentModule</title>
<path fill="none" stroke="#000000" d="M92,-122.3228C92,-145.6602 92,-183 92,-183 92,-183 1079.9303,-183 1079.9303,-183"/>
<polygon fill="#000000" stroke="#000000" points="1079.9304,-186.5001 1089.9303,-183 1079.9303,-179.5001 1079.9304,-186.5001"/>
</g>
</g>
</svg>
