<?xml version="1.0" encoding="UTF-8" standalone="no"?>
<!DOCTYPE svg PUBLIC "-//W3C//DTD SVG 1.1//EN"
 "http://www.w3.org/Graphics/SVG/1.1/DTD/svg11.dtd">
<!-- Generated by graphviz version 2.40.1 (20161225.0304)
 -->
<!-- Title: dependencies Pages: 1 -->
<svg width="2002pt" height="211pt"
 viewBox="0.00 0.00 2002.00 211.00" xmlns="http://www.w3.org/2000/svg" xmlns:xlink="http://www.w3.org/1999/xlink">
<g id="graph0" class="graph" transform="scale(1 1) rotate(0) translate(4 207)">
<title>dependencies</title>
<polygon fill="#ffffff" stroke="transparent" points="-4,4 -4,-207 1998,-207 1998,4 -4,4"/>
<text text-anchor="start" x="976.0091" y="-42.4" font-family="sans-serif" font-weight="bold" font-size="14.00" fill="#000000">Legend</text>
<polygon fill="#ffffb3" stroke="transparent" points="763,-10 763,-30 783,-30 783,-10 763,-10"/>
<text text-anchor="start" x="786.629" y="-15.4" font-family="sans-serif" font-size="14.00" fill="#000000"> &#160;Declarations</text>
<polygon fill="#8dd3c7" stroke="transparent" points="876,-10 876,-30 896,-30 896,-10 876,-10"/>
<text text-anchor="start" x="899.7251" y="-15.4" font-family="sans-serif" font-size="14.00" fill="#000000"> &#160;Module</text>
<polygon fill="#80b1d3" stroke="transparent" points="962,-10 962,-30 982,-30 982,-10 962,-10"/>
<text text-anchor="start" x="985.7812" y="-15.4" font-family="sans-serif" font-size="14.00" fill="#000000"> &#160;Bootstrap</text>
<polygon fill="#fdb462" stroke="transparent" points="1059,-10 1059,-30 1079,-30 1079,-10 1059,-10"/>
<text text-anchor="start" x="1082.6732" y="-15.4" font-family="sans-serif" font-size="14.00" fill="#000000"> &#160;Providers</text>
<polygon fill="#fb8072" stroke="transparent" points="1155,-10 1155,-30 1175,-30 1175,-10 1155,-10"/>
<text text-anchor="start" x="1178.7258" y="-15.4" font-family="sans-serif" font-size="14.00" fill="#000000"> &#160;Exports</text>
<g id="clust1" class="cluster">
<title>cluster_ContentModule</title>
<polygon fill="none" stroke="#000000" stroke-dasharray="1,5" points="8,-70 8,-195 1986,-195 1986,-70 8,-70"/>
</g>
<g id="clust2" class="cluster">
<title>cluster_ContentModule_declarations</title>
<polygon fill="none" stroke="#000000" points="16,-78 16,-130 1978,-130 1978,-78 16,-78"/>
</g>
<!-- CardConfirmationComponent -->
<g id="node1" class="node">
<title>CardConfirmationComponent</title>
<polygon fill="#ffffb3" stroke="#000000" points="1969.979,-122 1786.021,-122 1786.021,-86 1969.979,-86 1969.979,-122"/>
<text text-anchor="middle" x="1878" y="-99.8" font-family="Times,serif" font-size="14.00" fill="#000000">CardConfirmationComponent</text>
</g>
<!-- ContentModule -->
<g id="node13" class="node">
<title>ContentModule</title>
<polygon fill="#8dd3c7" stroke="#000000" points="968.8823,-187 965.8823,-191 944.8823,-191 941.8823,-187 865.1177,-187 865.1177,-151 968.8823,-151 968.8823,-187"/>
<text text-anchor="middle" x="917" y="-164.8" font-family="Times,serif" font-size="14.00" fill="#000000">ContentModule</text>
</g>
<!-- CardConfirmationComponent&#45;&gt;ContentModule -->
<g id="edge1" class="edge">
<title>CardConfirmationComponent&#45;&gt;ContentModule</title>
<path fill="none" stroke="#000000" d="M1878,-122.0908C1878,-145.1328 1878,-182 1878,-182 1878,-182 979.0083,-182 979.0083,-182"/>
<polygon fill="#000000" stroke="#000000" points="979.0083,-178.5001 969.0083,-182 979.0082,-185.5001 979.0083,-178.5001"/>
</g>
<!-- CardDefaultComponent -->
<g id="node2" class="node">
<title>CardDefaultComponent</title>
<polygon fill="#ffffb3" stroke="#000000" points="1768.0226,-122 1617.9774,-122 1617.9774,-86 1768.0226,-86 1768.0226,-122"/>
<text text-anchor="middle" x="1693" y="-99.8" font-family="Times,serif" font-size="14.00" fill="#000000">CardDefaultComponent</text>
</g>
<!-- CardDefaultComponent&#45;&gt;ContentModule -->
<g id="edge2" class="edge">
<title>CardDefaultComponent&#45;&gt;ContentModule</title>
<path fill="none" stroke="#000000" d="M1693,-122.2843C1693,-143.3211 1693,-175 1693,-175 1693,-175 979.1205,-175 979.1205,-175"/>
<polygon fill="#000000" stroke="#000000" points="979.1205,-171.5001 969.1205,-175 979.1205,-178.5001 979.1205,-171.5001"/>
</g>
<!-- CardFormComponent -->
<g id="node3" class="node">
<title>CardFormComponent</title>
<polygon fill="#ffffb3" stroke="#000000" points="1599.3781,-122 1460.6219,-122 1460.6219,-86 1599.3781,-86 1599.3781,-122"/>
<text text-anchor="middle" x="1530" y="-99.8" font-family="Times,serif" font-size="14.00" fill="#000000">CardFormComponent</text>
</g>
<!-- CardFormComponent&#45;&gt;ContentModule -->
<g id="edge3" class="edge">
<title>CardFormComponent&#45;&gt;ContentModule</title>
<path fill="none" stroke="#000000" d="M1530,-122.1061C1530,-141.3391 1530,-169 1530,-169 1530,-169 978.9996,-169 978.9996,-169"/>
<polygon fill="#000000" stroke="#000000" points="978.9996,-165.5001 968.9996,-169 978.9996,-172.5001 978.9996,-165.5001"/>
</g>
<!-- CardFormFetchCaseComponent -->
<g id="node4" class="node">
<title>CardFormFetchCaseComponent</title>
<polygon fill="#ffffb3" stroke="#000000" points="1442.6909,-122 1245.3091,-122 1245.3091,-86 1442.6909,-86 1442.6909,-122"/>
<text text-anchor="middle" x="1344" y="-99.8" font-family="Times,serif" font-size="14.00" fill="#000000">CardFormFetchCaseComponent</text>
</g>
<!-- CardFormFetchCaseComponent&#45;&gt;ContentModule -->
<g id="edge4" class="edge">
<title>CardFormFetchCaseComponent&#45;&gt;ContentModule</title>
<path fill="none" stroke="#000000" d="M1344,-122.0225C1344,-139.3734 1344,-163 1344,-163 1344,-163 978.9317,-163 978.9317,-163"/>
<polygon fill="#000000" stroke="#000000" points="978.9317,-159.5001 968.9317,-163 978.9317,-166.5001 978.9317,-159.5001"/>
</g>
<!-- CardImageComponent -->
<g id="node5" class="node">
<title>CardImageComponent</title>
<polygon fill="#ffffb3" stroke="#000000" points="1227.5254,-122 1084.4746,-122 1084.4746,-86 1227.5254,-86 1227.5254,-122"/>
<text text-anchor="middle" x="1156" y="-99.8" font-family="Times,serif" font-size="14.00" fill="#000000">CardImageComponent</text>
</g>
<!-- CardImageComponent&#45;&gt;ContentModule -->
<g id="edge5" class="edge">
<title>CardImageComponent&#45;&gt;ContentModule</title>
<path fill="none" stroke="#000000" d="M1156,-122.2396C1156,-137.5706 1156,-157 1156,-157 1156,-157 979.1542,-157 979.1542,-157"/>
<polygon fill="#000000" stroke="#000000" points="979.1543,-153.5001 969.1542,-157 979.1542,-160.5001 979.1543,-153.5001"/>
</g>
<!-- CardTableComponent -->
<g id="node6" class="node">
<title>CardTableComponent</title>
<polygon fill="#ffffb3" stroke="#000000" points="1066.4172,-122 925.5828,-122 925.5828,-86 1066.4172,-86 1066.4172,-122"/>
<text text-anchor="middle" x="996" y="-99.8" font-family="Times,serif" font-size="14.00" fill="#000000">CardTableComponent</text>
</g>
<!-- CardTableComponent&#45;&gt;ContentModule -->
<g id="edge6" class="edge">
<title>CardTableComponent&#45;&gt;ContentModule</title>
<path fill="none" stroke="#000000" d="M947.3664,-122.1061C947.3664,-122.1061 947.3664,-140.991 947.3664,-140.991"/>
<polygon fill="#000000" stroke="#000000" points="943.8665,-140.9909 947.3664,-150.991 950.8665,-140.991 943.8665,-140.9909"/>
</g>
<!-- CardTmplComponent -->
<g id="node7" class="node">
<title>CardTmplComponent</title>
<polygon fill="#ffffb3" stroke="#000000" points="907.3781,-122 768.6219,-122 768.6219,-86 907.3781,-86 907.3781,-122"/>
<text text-anchor="middle" x="838" y="-99.8" font-family="Times,serif" font-size="14.00" fill="#000000">CardTmplComponent</text>
</g>
<!-- CardTmplComponent&#45;&gt;ContentModule -->
<g id="edge7" class="edge">
<title>CardTmplComponent&#45;&gt;ContentModule</title>
<path fill="none" stroke="#000000" d="M886.249,-122.1061C886.249,-122.1061 886.249,-140.991 886.249,-140.991"/>
<polygon fill="#000000" stroke="#000000" points="882.749,-140.9909 886.249,-150.991 889.749,-140.991 882.749,-140.9909"/>
</g>
<!-- ConfirmationComponent -->
<g id="node8" class="node">
<title>ConfirmationComponent</title>
<polygon fill="#ffffb3" stroke="#000000" points="750.2674,-122 593.7326,-122 593.7326,-86 750.2674,-86 750.2674,-122"/>
<text text-anchor="middle" x="672" y="-99.8" font-family="Times,serif" font-size="14.00" fill="#000000">ConfirmationComponent</text>
</g>
<!-- ConfirmationComponent&#45;&gt;ContentModule -->
<g id="edge8" class="edge">
<title>ConfirmationComponent&#45;&gt;ContentModule</title>
<path fill="none" stroke="#000000" d="M672,-122.2396C672,-137.5706 672,-157 672,-157 672,-157 855.0418,-157 855.0418,-157"/>
<polygon fill="#000000" stroke="#000000" points="855.0418,-160.5001 865.0418,-157 855.0418,-153.5001 855.0418,-160.5001"/>
</g>
<!-- FrontpageComponent -->
<g id="node9" class="node">
<title>FrontpageComponent</title>
<polygon fill="#ffffb3" stroke="#000000" points="576.0954,-122 437.9046,-122 437.9046,-86 576.0954,-86 576.0954,-122"/>
<text text-anchor="middle" x="507" y="-99.8" font-family="Times,serif" font-size="14.00" fill="#000000">FrontpageComponent</text>
</g>
<!-- FrontpageComponent&#45;&gt;ContentModule -->
<g id="edge9" class="edge">
<title>FrontpageComponent&#45;&gt;ContentModule</title>
<path fill="none" stroke="#000000" d="M507,-122.0225C507,-139.3734 507,-163 507,-163 507,-163 855.0732,-163 855.0732,-163"/>
<polygon fill="#000000" stroke="#000000" points="855.0733,-166.5001 865.0732,-163 855.0732,-159.5001 855.0733,-166.5001"/>
</g>
<!-- Page2Component -->
<g id="node10" class="node">
<title>Page2Component</title>
<polygon fill="#ffffb3" stroke="#000000" points="419.5451,-122 304.4549,-122 304.4549,-86 419.5451,-86 419.5451,-122"/>
<text text-anchor="middle" x="362" y="-99.8" font-family="Times,serif" font-size="14.00" fill="#000000">Page2Component</text>
</g>
<!-- Page2Component&#45;&gt;ContentModule -->
<g id="edge10" class="edge">
<title>Page2Component&#45;&gt;ContentModule</title>
<path fill="none" stroke="#000000" d="M362,-122.1061C362,-141.3391 362,-169 362,-169 362,-169 854.7869,-169 854.7869,-169"/>
<polygon fill="#000000" stroke="#000000" points="854.787,-172.5001 864.7869,-169 854.7869,-165.5001 854.787,-172.5001"/>
</g>
<!-- PageComponent -->
<g id="node11" class="node">
<title>PageComponent</title>
<polygon fill="#ffffb3" stroke="#000000" points="286.0452,-122 177.9548,-122 177.9548,-86 286.0452,-86 286.0452,-122"/>
<text text-anchor="middle" x="232" y="-99.8" font-family="Times,serif" font-size="14.00" fill="#000000">PageComponent</text>
</g>
<!-- PageComponent&#45;&gt;ContentModule -->
<g id="edge11" class="edge">
<title>PageComponent&#45;&gt;ContentModule</title>
<path fill="none" stroke="#000000" d="M232,-122.2843C232,-143.3211 232,-175 232,-175 232,-175 854.9514,-175 854.9514,-175"/>
<polygon fill="#000000" stroke="#000000" points="854.9515,-178.5001 864.9514,-175 854.9514,-171.5001 854.9515,-178.5001"/>
</g>
<!-- SummaryComponent -->
<g id="node12" class="node">
<title>SummaryComponent</title>
<polygon fill="#ffffb3" stroke="#000000" points="159.7716,-122 24.2284,-122 24.2284,-86 159.7716,-86 159.7716,-122"/>
<text text-anchor="middle" x="92" y="-99.8" font-family="Times,serif" font-size="14.00" fill="#000000">SummaryComponent</text>
</g>
<!-- SummaryComponent&#45;&gt;ContentModule -->
<g id="edge12" class="edge">
<title>SummaryComponent&#45;&gt;ContentModule</title>
<path fill="none" stroke="#000000" d="M92,-122.0908C92,-145.1328 92,-182 92,-182 92,-182 855.08,-182 855.08,-182"/>
<polygon fill="#000000" stroke="#000000" points="855.0801,-185.5001 865.08,-182 855.08,-178.5001 855.0801,-185.5001"/>
</g>
</g>
</svg>
