<?xml version="1.0" encoding="UTF-8" standalone="no"?>
<!DOCTYPE svg PUBLIC "-//W3C//DTD SVG 1.1//EN"
 "http://www.w3.org/Graphics/SVG/1.1/DTD/svg11.dtd">
<!-- Generated by graphviz version 2.40.1 (20161225.0304)
 -->
<!-- Title: dependencies Pages: 1 -->
<svg width="2767pt" height="211pt"
 viewBox="0.00 0.00 2767.00 211.00" xmlns="http://www.w3.org/2000/svg" xmlns:xlink="http://www.w3.org/1999/xlink">
<g id="graph0" class="graph" transform="scale(1 1) rotate(0) translate(4 207)">
<title>dependencies</title>
<polygon fill="#ffffff" stroke="transparent" points="-4,4 -4,-207 2763,-207 2763,4 -4,4"/>
<text text-anchor="start" x="1358.5091" y="-42.4" font-family="sans-serif" font-weight="bold" font-size="14.00" fill="#000000">Legend</text>
<polygon fill="#ffffb3" stroke="transparent" points="1145.5,-10 1145.5,-30 1165.5,-30 1165.5,-10 1145.5,-10"/>
<text text-anchor="start" x="1169.129" y="-15.4" font-family="sans-serif" font-size="14.00" fill="#000000"> &#160;Declarations</text>
<polygon fill="#8dd3c7" stroke="transparent" points="1258.5,-10 1258.5,-30 1278.5,-30 1278.5,-10 1258.5,-10"/>
<text text-anchor="start" x="1282.2251" y="-15.4" font-family="sans-serif" font-size="14.00" fill="#000000"> &#160;Module</text>
<polygon fill="#80b1d3" stroke="transparent" points="1344.5,-10 1344.5,-30 1364.5,-30 1364.5,-10 1344.5,-10"/>
<text text-anchor="start" x="1368.2812" y="-15.4" font-family="sans-serif" font-size="14.00" fill="#000000"> &#160;Bootstrap</text>
<polygon fill="#fdb462" stroke="transparent" points="1441.5,-10 1441.5,-30 1461.5,-30 1461.5,-10 1441.5,-10"/>
<text text-anchor="start" x="1465.1732" y="-15.4" font-family="sans-serif" font-size="14.00" fill="#000000"> &#160;Providers</text>
<polygon fill="#fb8072" stroke="transparent" points="1537.5,-10 1537.5,-30 1557.5,-30 1557.5,-10 1537.5,-10"/>
<text text-anchor="start" x="1561.2258" y="-15.4" font-family="sans-serif" font-size="14.00" fill="#000000"> &#160;Exports</text>
<g id="clust1" class="cluster">
<title>cluster_ContentModule</title>
<polygon fill="none" stroke="#000000" stroke-dasharray="1,5" points="8,-70 8,-195 2751,-195 2751,-70 8,-70"/>
</g>
<g id="clust2" class="cluster">
<title>cluster_ContentModule_declarations</title>
<polygon fill="none" stroke="#000000" points="16,-78 16,-130 2743,-130 2743,-78 16,-78"/>
</g>
<!-- CardCaseNumber -->
<g id="node1" class="node">
<title>CardCaseNumber</title>
<polygon fill="#ffffb3" stroke="#000000" points="2735.295,-122 2618.705,-122 2618.705,-86 2735.295,-86 2735.295,-122"/>
<text text-anchor="middle" x="2677" y="-99.8" font-family="Times,serif" font-size="14.00" fill="#000000">CardCaseNumber</text>
</g>
<!-- ContentModule -->
<g id="node18" class="node">
<title>ContentModule</title>
<polygon fill="#8dd3c7" stroke="#000000" points="1328.8823,-187 1325.8823,-191 1304.8823,-191 1301.8823,-187 1225.1177,-187 1225.1177,-151 1328.8823,-151 1328.8823,-187"/>
<text text-anchor="middle" x="1277" y="-164.8" font-family="Times,serif" font-size="14.00" fill="#000000">ContentModule</text>
</g>
<!-- CardCaseNumber&#45;&gt;ContentModule -->
<g id="edge1" class="edge">
<title>CardCaseNumber&#45;&gt;ContentModule</title>
<path fill="none" stroke="#000000" d="M2677,-122.3228C2677,-145.6602 2677,-183 2677,-183 2677,-183 1338.906,-183 1338.906,-183"/>
<polygon fill="#000000" stroke="#000000" points="1338.9061,-179.5001 1328.906,-183 1338.906,-186.5001 1338.9061,-179.5001"/>
</g>
<!-- CardConfirmationComponent -->
<g id="node2" class="node">
<title>CardConfirmationComponent</title>
<polygon fill="#ffffb3" stroke="#000000" points="2600.979,-122 2417.021,-122 2417.021,-86 2600.979,-86 2600.979,-122"/>
<text text-anchor="middle" x="2509" y="-99.8" font-family="Times,serif" font-size="14.00" fill="#000000">CardConfirmationComponent</text>
</g>
<!-- CardConfirmationComponent&#45;&gt;ContentModule -->
<g id="edge2" class="edge">
<title>CardConfirmationComponent&#45;&gt;ContentModule</title>
<path fill="none" stroke="#000000" d="M2509,-122.1554C2509,-144.3519 2509,-179 2509,-179 2509,-179 1339.1506,-179 1339.1506,-179"/>
<polygon fill="#000000" stroke="#000000" points="1339.1506,-175.5001 1329.1506,-179 1339.1506,-182.5001 1339.1506,-175.5001"/>
</g>
<!-- CardDefaultComponent -->
<g id="node3" class="node">
<title>CardDefaultComponent</title>
<polygon fill="#ffffb3" stroke="#000000" points="2399.0226,-122 2248.9774,-122 2248.9774,-86 2399.0226,-86 2399.0226,-122"/>
<text text-anchor="middle" x="2324" y="-99.8" font-family="Times,serif" font-size="14.00" fill="#000000">CardDefaultComponent</text>
</g>
<!-- CardDefaultComponent&#45;&gt;ContentModule -->
<g id="edge3" class="edge">
<title>CardDefaultComponent&#45;&gt;ContentModule</title>
<path fill="none" stroke="#000000" d="M2324,-122.2843C2324,-143.3211 2324,-175 2324,-175 2324,-175 1338.9209,-175 1338.9209,-175"/>
<polygon fill="#000000" stroke="#000000" points="1338.9209,-171.5001 1328.9209,-175 1338.9209,-178.5001 1338.9209,-171.5001"/>
</g>
<!-- CardFormComponent -->
<g id="node4" class="node">
<title>CardFormComponent</title>
<polygon fill="#ffffb3" stroke="#000000" points="2230.3781,-122 2091.6219,-122 2091.6219,-86 2230.3781,-86 2230.3781,-122"/>
<text text-anchor="middle" x="2161" y="-99.8" font-family="Times,serif" font-size="14.00" fill="#000000">CardFormComponent</text>
</g>
<!-- CardFormComponent&#45;&gt;ContentModule -->
<g id="edge4" class="edge">
<title>CardFormComponent&#45;&gt;ContentModule</title>
<path fill="none" stroke="#000000" d="M2161,-122.308C2161,-142.1455 2161,-171 2161,-171 2161,-171 1338.9979,-171 1338.9979,-171"/>
<polygon fill="#000000" stroke="#000000" points="1338.998,-167.5001 1328.9979,-171 1338.9979,-174.5001 1338.998,-167.5001"/>
</g>
<!-- CardFormFetchCaseComponent -->
<g id="node5" class="node">
<title>CardFormFetchCaseComponent</title>
<polygon fill="#ffffb3" stroke="#000000" points="2073.6909,-122 1876.3091,-122 1876.3091,-86 2073.6909,-86 2073.6909,-122"/>
<text text-anchor="middle" x="1975" y="-99.8" font-family="Times,serif" font-size="14.00" fill="#000000">CardFormFetchCaseComponent</text>
</g>
<!-- CardFormFetchCaseComponent&#45;&gt;ContentModule -->
<g id="edge5" class="edge">
<title>CardFormFetchCaseComponent&#45;&gt;ContentModule</title>
<path fill="none" stroke="#000000" d="M1975,-122.2222C1975,-140.8285 1975,-167 1975,-167 1975,-167 1338.8932,-167 1338.8932,-167"/>
<polygon fill="#000000" stroke="#000000" points="1338.8932,-163.5001 1328.8932,-167 1338.8932,-170.5001 1338.8932,-163.5001"/>
</g>
<!-- CardImageComponent -->
<g id="node6" class="node">
<title>CardImageComponent</title>
<polygon fill="#ffffb3" stroke="#000000" points="1858.5254,-122 1715.4746,-122 1715.4746,-86 1858.5254,-86 1858.5254,-122"/>
<text text-anchor="middle" x="1787" y="-99.8" font-family="Times,serif" font-size="14.00" fill="#000000">CardImageComponent</text>
</g>
<!-- CardImageComponent&#45;&gt;ContentModule -->
<g id="edge6" class="edge">
<title>CardImageComponent&#45;&gt;ContentModule</title>
<path fill="none" stroke="#000000" d="M1787,-122.0225C1787,-139.3734 1787,-163 1787,-163 1787,-163 1339.1822,-163 1339.1822,-163"/>
<polygon fill="#000000" stroke="#000000" points="1339.1823,-159.5001 1329.1822,-163 1339.1822,-166.5001 1339.1823,-159.5001"/>
</g>
<!-- CardPatientDataComponent -->
<g id="node7" class="node">
<title>CardPatientDataComponent</title>
<polygon fill="#ffffb3" stroke="#000000" points="1696.8543,-122 1523.1457,-122 1523.1457,-86 1696.8543,-86 1696.8543,-122"/>
<text text-anchor="middle" x="1610" y="-99.8" font-family="Times,serif" font-size="14.00" fill="#000000">CardPatientDataComponent</text>
</g>
<!-- CardPatientDataComponent&#45;&gt;ContentModule -->
<g id="edge7" class="edge">
<title>CardPatientDataComponent&#45;&gt;ContentModule</title>
<path fill="none" stroke="#000000" d="M1610,-122.0091C1610,-138.0494 1610,-159 1610,-159 1610,-159 1339.0313,-159 1339.0313,-159"/>
<polygon fill="#000000" stroke="#000000" points="1339.0313,-155.5001 1329.0313,-159 1339.0312,-162.5001 1339.0313,-155.5001"/>
</g>
<!-- CardTableComponent -->
<g id="node8" class="node">
<title>CardTableComponent</title>
<polygon fill="#ffffb3" stroke="#000000" points="1505.4172,-122 1364.5828,-122 1364.5828,-86 1505.4172,-86 1505.4172,-122"/>
<text text-anchor="middle" x="1435" y="-99.8" font-family="Times,serif" font-size="14.00" fill="#000000">CardTableComponent</text>
</g>
<!-- CardTableComponent&#45;&gt;ContentModule -->
<g id="edge8" class="edge">
<title>CardTableComponent&#45;&gt;ContentModule</title>
<path fill="none" stroke="#000000" d="M1435,-122.1243C1435,-136.7832 1435,-155 1435,-155 1435,-155 1339.173,-155 1339.173,-155"/>
<polygon fill="#000000" stroke="#000000" points="1339.173,-151.5001 1329.173,-155 1339.173,-158.5001 1339.173,-151.5001"/>
</g>
<!-- CardTmplComponent -->
<g id="node9" class="node">
<title>CardTmplComponent</title>
<polygon fill="#ffffb3" stroke="#000000" points="1346.3781,-122 1207.6219,-122 1207.6219,-86 1346.3781,-86 1346.3781,-122"/>
<text text-anchor="middle" x="1277" y="-99.8" font-family="Times,serif" font-size="14.00" fill="#000000">CardTmplComponent</text>
</g>
<!-- CardTmplComponent&#45;&gt;ContentModule -->
<g id="edge9" class="edge">
<title>CardTmplComponent&#45;&gt;ContentModule</title>
<path fill="none" stroke="#000000" d="M1277,-122.1061C1277,-122.1061 1277,-140.991 1277,-140.991"/>
<polygon fill="#000000" stroke="#000000" points="1273.5001,-140.9909 1277,-150.991 1280.5001,-140.991 1273.5001,-140.9909"/>
</g>
<!-- ConfirmationComponent -->
<g id="node10" class="node">
<title>ConfirmationComponent</title>
<polygon fill="#ffffb3" stroke="#000000" points="1189.2674,-122 1032.7326,-122 1032.7326,-86 1189.2674,-86 1189.2674,-122"/>
<text text-anchor="middle" x="1111" y="-99.8" font-family="Times,serif" font-size="14.00" fill="#000000">ConfirmationComponent</text>
</g>
<!-- ConfirmationComponent&#45;&gt;ContentModule -->
<g id="edge10" class="edge">
<title>ConfirmationComponent&#45;&gt;ContentModule</title>
<path fill="none" stroke="#000000" d="M1111,-122.1243C1111,-136.7832 1111,-155 1111,-155 1111,-155 1214.932,-155 1214.932,-155"/>
<polygon fill="#000000" stroke="#000000" points="1214.9321,-158.5001 1224.932,-155 1214.932,-151.5001 1214.9321,-158.5001"/>
</g>
<!-- EditCaseComponent -->
<g id="node11" class="node">
<title>EditCaseComponent</title>
<polygon fill="#ffffb3" stroke="#000000" points="1014.8767,-122 883.1233,-122 883.1233,-86 1014.8767,-86 1014.8767,-122"/>
<text text-anchor="middle" x="949" y="-99.8" font-family="Times,serif" font-size="14.00" fill="#000000">EditCaseComponent</text>
</g>
<!-- EditCaseComponent&#45;&gt;ContentModule -->
<g id="edge11" class="edge">
<title>EditCaseComponent&#45;&gt;ContentModule</title>
<path fill="none" stroke="#000000" d="M949,-122.0091C949,-138.0494 949,-159 949,-159 949,-159 1215.0274,-159 1215.0274,-159"/>
<polygon fill="#000000" stroke="#000000" points="1215.0275,-162.5001 1225.0274,-159 1215.0274,-155.5001 1215.0275,-162.5001"/>
</g>
<!-- FetchcaseComponent -->
<g id="node12" class="node">
<title>FetchcaseComponent</title>
<polygon fill="#ffffb3" stroke="#000000" points="865.024,-122 728.976,-122 728.976,-86 865.024,-86 865.024,-122"/>
<text text-anchor="middle" x="797" y="-99.8" font-family="Times,serif" font-size="14.00" fill="#000000">FetchcaseComponent</text>
</g>
<!-- FetchcaseComponent&#45;&gt;ContentModule -->
<g id="edge12" class="edge">
<title>FetchcaseComponent&#45;&gt;ContentModule</title>
<path fill="none" stroke="#000000" d="M797,-122.0225C797,-139.3734 797,-163 797,-163 797,-163 1214.7178,-163 1214.7178,-163"/>
<polygon fill="#000000" stroke="#000000" points="1214.7179,-166.5001 1224.7178,-163 1214.7178,-159.5001 1214.7179,-166.5001"/>
</g>
<!-- FrontpageComponent -->
<g id="node13" class="node">
<title>FrontpageComponent</title>
<polygon fill="#ffffb3" stroke="#000000" points="711.0954,-122 572.9046,-122 572.9046,-86 711.0954,-86 711.0954,-122"/>
<text text-anchor="middle" x="642" y="-99.8" font-family="Times,serif" font-size="14.00" fill="#000000">FrontpageComponent</text>
</g>
<!-- FrontpageComponent&#45;&gt;ContentModule -->
<g id="edge13" class="edge">
<title>FrontpageComponent&#45;&gt;ContentModule</title>
<path fill="none" stroke="#000000" d="M642,-122.2222C642,-140.8285 642,-167 642,-167 642,-167 1215.0353,-167 1215.0353,-167"/>
<polygon fill="#000000" stroke="#000000" points="1215.0353,-170.5001 1225.0353,-167 1215.0352,-163.5001 1215.0353,-170.5001"/>
</g>
<!-- Page2Component -->
<g id="node14" class="node">
<title>Page2Component</title>
<polygon fill="#ffffb3" stroke="#000000" points="554.5451,-122 439.4549,-122 439.4549,-86 554.5451,-86 554.5451,-122"/>
<text text-anchor="middle" x="497" y="-99.8" font-family="Times,serif" font-size="14.00" fill="#000000">Page2Component</text>
</g>
<!-- Page2Component&#45;&gt;ContentModule -->
<g id="edge14" class="edge">
<title>Page2Component&#45;&gt;ContentModule</title>
<path fill="none" stroke="#000000" d="M497,-122.308C497,-142.1455 497,-171 497,-171 497,-171 1214.9148,-171 1214.9148,-171"/>
<polygon fill="#000000" stroke="#000000" points="1214.9148,-174.5001 1224.9148,-171 1214.9147,-167.5001 1214.9148,-174.5001"/>
</g>
<!-- PageComponent -->
<g id="node15" class="node">
<title>PageComponent</title>
<polygon fill="#ffffb3" stroke="#000000" points="421.0452,-122 312.9548,-122 312.9548,-86 421.0452,-86 421.0452,-122"/>
<text text-anchor="middle" x="367" y="-99.8" font-family="Times,serif" font-size="14.00" fill="#000000">PageComponent</text>
</g>
<!-- PageComponent&#45;&gt;ContentModule -->
<g id="edge15" class="edge">
<title>PageComponent&#45;&gt;ContentModule</title>
<path fill="none" stroke="#000000" d="M367,-122.2843C367,-143.3211 367,-175 367,-175 367,-175 1214.806,-175 1214.806,-175"/>
<polygon fill="#000000" stroke="#000000" points="1214.806,-178.5001 1224.806,-175 1214.806,-171.5001 1214.806,-178.5001"/>
</g>
<!-- PopupComponent -->
<g id="node16" class="node">
<title>PopupComponent</title>
<polygon fill="#ffffb3" stroke="#000000" points="294.6151,-122 177.3849,-122 177.3849,-86 294.6151,-86 294.6151,-122"/>
<text text-anchor="middle" x="236" y="-99.8" font-family="Times,serif" font-size="14.00" fill="#000000">PopupComponent</text>
</g>
<!-- PopupComponent&#45;&gt;ContentModule -->
<g id="edge16" class="edge">
<title>PopupComponent&#45;&gt;ContentModule</title>
<path fill="none" stroke="#000000" d="M236,-122.1554C236,-144.3519 236,-179 236,-179 236,-179 1215.0205,-179 1215.0205,-179"/>
<polygon fill="#000000" stroke="#000000" points="1215.0205,-182.5001 1225.0205,-179 1215.0205,-175.5001 1215.0205,-182.5001"/>
</g>
<!-- SummaryComponent -->
<g id="node17" class="node">
<title>SummaryComponent</title>
<polygon fill="#ffffb3" stroke="#000000" points="159.7716,-122 24.2284,-122 24.2284,-86 159.7716,-86 159.7716,-122"/>
<text text-anchor="middle" x="92" y="-99.8" font-family="Times,serif" font-size="14.00" fill="#000000">SummaryComponent</text>
</g>
<!-- SummaryComponent&#45;&gt;ContentModule -->
<g id="edge17" class="edge">
<title>SummaryComponent&#45;&gt;ContentModule</title>
<path fill="none" stroke="#000000" d="M92,-122.3228C92,-145.6602 92,-183 92,-183 92,-183 1214.9372,-183 1214.9372,-183"/>
<polygon fill="#000000" stroke="#000000" points="1214.9372,-186.5001 1224.9372,-183 1214.9371,-179.5001 1214.9372,-186.5001"/>
</g>
</g>
</svg>
