<?xml version="1.0" encoding="UTF-8" standalone="no"?>
<!DOCTYPE svg PUBLIC "-//W3C//DTD SVG 1.1//EN"
 "http://www.w3.org/Graphics/SVG/1.1/DTD/svg11.dtd">
<!-- Generated by graphviz version 2.40.1 (20161225.0304)
 -->
<!-- Title: dependencies Pages: 1 -->
<svg width="2934pt" height="211pt"
 viewBox="0.00 0.00 2934.00 211.00" xmlns="http://www.w3.org/2000/svg" xmlns:xlink="http://www.w3.org/1999/xlink">
<g id="graph0" class="graph" transform="scale(1 1) rotate(0) translate(4 207)">
<title>dependencies</title>
<polygon fill="#ffffff" stroke="transparent" points="-4,4 -4,-207 2930,-207 2930,4 -4,4"/>
<text text-anchor="start" x="1442.0091" y="-42.4" font-family="sans-serif" font-weight="bold" font-size="14.00" fill="#000000">Legend</text>
<polygon fill="#ffffb3" stroke="transparent" points="1229,-10 1229,-30 1249,-30 1249,-10 1229,-10"/>
<text text-anchor="start" x="1252.629" y="-15.4" font-family="sans-serif" font-size="14.00" fill="#000000"> &#160;Declarations</text>
<polygon fill="#8dd3c7" stroke="transparent" points="1342,-10 1342,-30 1362,-30 1362,-10 1342,-10"/>
<text text-anchor="start" x="1365.7251" y="-15.4" font-family="sans-serif" font-size="14.00" fill="#000000"> &#160;Module</text>
<polygon fill="#80b1d3" stroke="transparent" points="1428,-10 1428,-30 1448,-30 1448,-10 1428,-10"/>
<text text-anchor="start" x="1451.7812" y="-15.4" font-family="sans-serif" font-size="14.00" fill="#000000"> &#160;Bootstrap</text>
<polygon fill="#fdb462" stroke="transparent" points="1525,-10 1525,-30 1545,-30 1545,-10 1525,-10"/>
<text text-anchor="start" x="1548.6732" y="-15.4" font-family="sans-serif" font-size="14.00" fill="#000000"> &#160;Providers</text>
<polygon fill="#fb8072" stroke="transparent" points="1621,-10 1621,-30 1641,-30 1641,-10 1621,-10"/>
<text text-anchor="start" x="1644.7258" y="-15.4" font-family="sans-serif" font-size="14.00" fill="#000000"> &#160;Exports</text>
<g id="clust1" class="cluster">
<title>cluster_ContentModule</title>
<polygon fill="none" stroke="#000000" stroke-dasharray="1,5" points="8,-70 8,-195 2918,-195 2918,-70 8,-70"/>
</g>
<g id="clust2" class="cluster">
<title>cluster_ContentModule_declarations</title>
<polygon fill="none" stroke="#000000" points="16,-78 16,-130 2910,-130 2910,-78 16,-78"/>
</g>
<!-- CardCaseNumber -->
<g id="node1" class="node">
<title>CardCaseNumber</title>
<polygon fill="#ffffb3" stroke="#000000" points="2902.295,-122 2785.705,-122 2785.705,-86 2902.295,-86 2902.295,-122"/>
<text text-anchor="middle" x="2844" y="-99.8" font-family="Times,serif" font-size="14.00" fill="#000000">CardCaseNumber</text>
</g>
<!-- ContentModule -->
<g id="node19" class="node">
<title>ContentModule</title>
<polygon fill="#8dd3c7" stroke="#000000" points="1412.8823,-187 1409.8823,-191 1388.8823,-191 1385.8823,-187 1309.1177,-187 1309.1177,-151 1412.8823,-151 1412.8823,-187"/>
<text text-anchor="middle" x="1361" y="-164.8" font-family="Times,serif" font-size="14.00" fill="#000000">ContentModule</text>
</g>
<!-- CardCaseNumber&#45;&gt;ContentModule -->
<g id="edge1" class="edge">
<title>CardCaseNumber&#45;&gt;ContentModule</title>
<path fill="none" stroke="#000000" d="M2844,-122.3228C2844,-145.6602 2844,-183 2844,-183 2844,-183 1422.9112,-183 1422.9112,-183"/>
<polygon fill="#000000" stroke="#000000" points="1422.9112,-179.5001 1412.9112,-183 1422.9112,-186.5001 1422.9112,-179.5001"/>
</g>
<!-- CardConfirmationComponent -->
<g id="node2" class="node">
<title>CardConfirmationComponent</title>
<polygon fill="#ffffb3" stroke="#000000" points="2767.979,-122 2584.021,-122 2584.021,-86 2767.979,-86 2767.979,-122"/>
<text text-anchor="middle" x="2676" y="-99.8" font-family="Times,serif" font-size="14.00" fill="#000000">CardConfirmationComponent</text>
</g>
<!-- CardConfirmationComponent&#45;&gt;ContentModule -->
<g id="edge2" class="edge">
<title>CardConfirmationComponent&#45;&gt;ContentModule</title>
<path fill="none" stroke="#000000" d="M2676,-122.1554C2676,-144.3519 2676,-179 2676,-179 2676,-179 1422.9546,-179 1422.9546,-179"/>
<polygon fill="#000000" stroke="#000000" points="1422.9546,-175.5001 1412.9546,-179 1422.9545,-182.5001 1422.9546,-175.5001"/>
</g>
<!-- CardDefaultComponent -->
<g id="node3" class="node">
<title>CardDefaultComponent</title>
<polygon fill="#ffffb3" stroke="#000000" points="2566.0226,-122 2415.9774,-122 2415.9774,-86 2566.0226,-86 2566.0226,-122"/>
<text text-anchor="middle" x="2491" y="-99.8" font-family="Times,serif" font-size="14.00" fill="#000000">CardDefaultComponent</text>
</g>
<!-- CardDefaultComponent&#45;&gt;ContentModule -->
<g id="edge3" class="edge">
<title>CardDefaultComponent&#45;&gt;ContentModule</title>
<path fill="none" stroke="#000000" d="M2491,-122.2843C2491,-143.3211 2491,-175 2491,-175 2491,-175 1423.236,-175 1423.236,-175"/>
<polygon fill="#000000" stroke="#000000" points="1423.236,-171.5001 1413.236,-175 1423.2359,-178.5001 1423.236,-171.5001"/>
</g>
<!-- CardFormComponent -->
<g id="node4" class="node">
<title>CardFormComponent</title>
<polygon fill="#ffffb3" stroke="#000000" points="2397.3781,-122 2258.6219,-122 2258.6219,-86 2397.3781,-86 2397.3781,-122"/>
<text text-anchor="middle" x="2328" y="-99.8" font-family="Times,serif" font-size="14.00" fill="#000000">CardFormComponent</text>
</g>
<!-- CardFormComponent&#45;&gt;ContentModule -->
<g id="edge4" class="edge">
<title>CardFormComponent&#45;&gt;ContentModule</title>
<path fill="none" stroke="#000000" d="M2328,-122.308C2328,-142.1455 2328,-171 2328,-171 2328,-171 1422.9901,-171 1422.9901,-171"/>
<polygon fill="#000000" stroke="#000000" points="1422.9902,-167.5001 1412.9901,-171 1422.9901,-174.5001 1422.9902,-167.5001"/>
</g>
<!-- CardFormFetchCaseComponent -->
<g id="node5" class="node">
<title>CardFormFetchCaseComponent</title>
<polygon fill="#ffffb3" stroke="#000000" points="2240.6909,-122 2043.3091,-122 2043.3091,-86 2240.6909,-86 2240.6909,-122"/>
<text text-anchor="middle" x="2142" y="-99.8" font-family="Times,serif" font-size="14.00" fill="#000000">CardFormFetchCaseComponent</text>
</g>
<!-- CardFormFetchCaseComponent&#45;&gt;ContentModule -->
<g id="edge5" class="edge">
<title>CardFormFetchCaseComponent&#45;&gt;ContentModule</title>
<path fill="none" stroke="#000000" d="M2142,-122.2222C2142,-140.8285 2142,-167 2142,-167 2142,-167 1423.152,-167 1423.152,-167"/>
<polygon fill="#000000" stroke="#000000" points="1423.152,-163.5001 1413.152,-167 1423.152,-170.5001 1423.152,-163.5001"/>
</g>
<!-- CardImageComponent -->
<g id="node6" class="node">
<title>CardImageComponent</title>
<polygon fill="#ffffb3" stroke="#000000" points="2025.5254,-122 1882.4746,-122 1882.4746,-86 2025.5254,-86 2025.5254,-122"/>
<text text-anchor="middle" x="1954" y="-99.8" font-family="Times,serif" font-size="14.00" fill="#000000">CardImageComponent</text>
</g>
<!-- CardImageComponent&#45;&gt;ContentModule -->
<g id="edge6" class="edge">
<title>CardImageComponent&#45;&gt;ContentModule</title>
<path fill="none" stroke="#000000" d="M1954,-122.0225C1954,-139.3734 1954,-163 1954,-163 1954,-163 1423.1051,-163 1423.1051,-163"/>
<polygon fill="#000000" stroke="#000000" points="1423.1051,-159.5001 1413.1051,-163 1423.105,-166.5001 1423.1051,-159.5001"/>
</g>
<!-- CardPatientDataComponent -->
<g id="node7" class="node">
<title>CardPatientDataComponent</title>
<polygon fill="#ffffb3" stroke="#000000" points="1863.8543,-122 1690.1457,-122 1690.1457,-86 1863.8543,-86 1863.8543,-122"/>
<text text-anchor="middle" x="1777" y="-99.8" font-family="Times,serif" font-size="14.00" fill="#000000">CardPatientDataComponent</text>
</g>
<!-- CardPatientDataComponent&#45;&gt;ContentModule -->
<g id="edge7" class="edge">
<title>CardPatientDataComponent&#45;&gt;ContentModule</title>
<path fill="none" stroke="#000000" d="M1777,-122.0091C1777,-138.0494 1777,-159 1777,-159 1777,-159 1423.2655,-159 1423.2655,-159"/>
<polygon fill="#000000" stroke="#000000" points="1423.2655,-155.5001 1413.2655,-159 1423.2654,-162.5001 1423.2655,-155.5001"/>
</g>
<!-- CardTableComponent -->
<g id="node8" class="node">
<title>CardTableComponent</title>
<polygon fill="#ffffb3" stroke="#000000" points="1672.4172,-122 1531.5828,-122 1531.5828,-86 1672.4172,-86 1672.4172,-122"/>
<text text-anchor="middle" x="1602" y="-99.8" font-family="Times,serif" font-size="14.00" fill="#000000">CardTableComponent</text>
</g>
<!-- CardTableComponent&#45;&gt;ContentModule -->
<g id="edge8" class="edge">
<title>CardTableComponent&#45;&gt;ContentModule</title>
<path fill="none" stroke="#000000" d="M1602,-122.1243C1602,-136.7832 1602,-155 1602,-155 1602,-155 1422.9967,-155 1422.9967,-155"/>
<polygon fill="#000000" stroke="#000000" points="1422.9967,-151.5001 1412.9967,-155 1422.9967,-158.5001 1422.9967,-151.5001"/>
</g>
<!-- CardTmplComponent -->
<g id="node9" class="node">
<title>CardTmplComponent</title>
<polygon fill="#ffffb3" stroke="#000000" points="1513.3781,-122 1374.6219,-122 1374.6219,-86 1513.3781,-86 1513.3781,-122"/>
<text text-anchor="middle" x="1444" y="-99.8" font-family="Times,serif" font-size="14.00" fill="#000000">CardTmplComponent</text>
</g>
<!-- CardTmplComponent&#45;&gt;ContentModule -->
<g id="edge9" class="edge">
<title>CardTmplComponent&#45;&gt;ContentModule</title>
<path fill="none" stroke="#000000" d="M1393.751,-122.1061C1393.751,-122.1061 1393.751,-140.991 1393.751,-140.991"/>
<polygon fill="#000000" stroke="#000000" points="1390.2511,-140.9909 1393.751,-150.991 1397.2511,-140.991 1390.2511,-140.9909"/>
</g>
<!-- ConfirmationComponent -->
<g id="node10" class="node">
<title>ConfirmationComponent</title>
<polygon fill="#ffffb3" stroke="#000000" points="1356.2674,-122 1199.7326,-122 1199.7326,-86 1356.2674,-86 1356.2674,-122"/>
<text text-anchor="middle" x="1278" y="-99.8" font-family="Times,serif" font-size="14.00" fill="#000000">ConfirmationComponent</text>
</g>
<!-- ConfirmationComponent&#45;&gt;ContentModule -->
<g id="edge10" class="edge">
<title>ConfirmationComponent&#45;&gt;ContentModule</title>
<path fill="none" stroke="#000000" d="M1332.7213,-122.1061C1332.7213,-122.1061 1332.7213,-140.991 1332.7213,-140.991"/>
<polygon fill="#000000" stroke="#000000" points="1329.2213,-140.9909 1332.7213,-150.991 1336.2213,-140.991 1329.2213,-140.9909"/>
</g>
<!-- EditCaseComponent -->
<g id="node11" class="node">
<title>EditCaseComponent</title>
<polygon fill="#ffffb3" stroke="#000000" points="1181.8767,-122 1050.1233,-122 1050.1233,-86 1181.8767,-86 1181.8767,-122"/>
<text text-anchor="middle" x="1116" y="-99.8" font-family="Times,serif" font-size="14.00" fill="#000000">EditCaseComponent</text>
</g>
<!-- EditCaseComponent&#45;&gt;ContentModule -->
<g id="edge11" class="edge">
<title>EditCaseComponent&#45;&gt;ContentModule</title>
<path fill="none" stroke="#000000" d="M1116,-122.1243C1116,-136.7832 1116,-155 1116,-155 1116,-155 1299.0418,-155 1299.0418,-155"/>
<polygon fill="#000000" stroke="#000000" points="1299.0418,-158.5001 1309.0418,-155 1299.0418,-151.5001 1299.0418,-158.5001"/>
</g>
<!-- FetchcaseComponent -->
<g id="node12" class="node">
<title>FetchcaseComponent</title>
<polygon fill="#ffffb3" stroke="#000000" points="1032.024,-122 895.976,-122 895.976,-86 1032.024,-86 1032.024,-122"/>
<text text-anchor="middle" x="964" y="-99.8" font-family="Times,serif" font-size="14.00" fill="#000000">FetchcaseComponent</text>
</g>
<!-- FetchcaseComponent&#45;&gt;ContentModule -->
<g id="edge12" class="edge">
<title>FetchcaseComponent&#45;&gt;ContentModule</title>
<path fill="none" stroke="#000000" d="M964,-122.0091C964,-138.0494 964,-159 964,-159 964,-159 1299.0992,-159 1299.0992,-159"/>
<polygon fill="#000000" stroke="#000000" points="1299.0992,-162.5001 1309.0992,-159 1299.0991,-155.5001 1299.0992,-162.5001"/>
</g>
<!-- FrontpageComponent -->
<g id="node13" class="node">
<title>FrontpageComponent</title>
<polygon fill="#ffffb3" stroke="#000000" points="878.0954,-122 739.9046,-122 739.9046,-86 878.0954,-86 878.0954,-122"/>
<text text-anchor="middle" x="809" y="-99.8" font-family="Times,serif" font-size="14.00" fill="#000000">FrontpageComponent</text>
</g>
<!-- FrontpageComponent&#45;&gt;ContentModule -->
<g id="edge13" class="edge">
<title>FrontpageComponent&#45;&gt;ContentModule</title>
<path fill="none" stroke="#000000" d="M809,-122.0225C809,-139.3734 809,-163 809,-163 809,-163 1299.0692,-163 1299.0692,-163"/>
<polygon fill="#000000" stroke="#000000" points="1299.0692,-166.5001 1309.0692,-163 1299.0691,-159.5001 1299.0692,-166.5001"/>
</g>
<!-- Page2Component -->
<g id="node14" class="node">
<title>Page2Component</title>
<polygon fill="#ffffb3" stroke="#000000" points="721.5451,-122 606.4549,-122 606.4549,-86 721.5451,-86 721.5451,-122"/>
<text text-anchor="middle" x="664" y="-99.8" font-family="Times,serif" font-size="14.00" fill="#000000">Page2Component</text>
</g>
<!-- Page2Component&#45;&gt;ContentModule -->
<g id="edge14" class="edge">
<title>Page2Component&#45;&gt;ContentModule</title>
<path fill="none" stroke="#000000" d="M664,-122.2222C664,-140.8285 664,-167 664,-167 664,-167 1298.8968,-167 1298.8968,-167"/>
<polygon fill="#000000" stroke="#000000" points="1298.8968,-170.5001 1308.8968,-167 1298.8967,-163.5001 1298.8968,-170.5001"/>
</g>
<!-- PageComponent -->
<g id="node15" class="node">
<title>PageComponent</title>
<polygon fill="#ffffb3" stroke="#000000" points="588.0452,-122 479.9548,-122 479.9548,-86 588.0452,-86 588.0452,-122"/>
<text text-anchor="middle" x="534" y="-99.8" font-family="Times,serif" font-size="14.00" fill="#000000">PageComponent</text>
</g>
<!-- PageComponent&#45;&gt;ContentModule -->
<g id="edge15" class="edge">
<title>PageComponent&#45;&gt;ContentModule</title>
<path fill="none" stroke="#000000" d="M534,-122.308C534,-142.1455 534,-171 534,-171 534,-171 1298.9542,-171 1298.9542,-171"/>
<polygon fill="#000000" stroke="#000000" points="1298.9542,-174.5001 1308.9542,-171 1298.9541,-167.5001 1298.9542,-174.5001"/>
</g>
<!-- PageHeaderComponent -->
<g id="node16" class="node">
<title>PageHeaderComponent</title>
<polygon fill="#ffffb3" stroke="#000000" points="461.4552,-122 312.5448,-122 312.5448,-86 461.4552,-86 461.4552,-122"/>
<text text-anchor="middle" x="387" y="-99.8" font-family="Times,serif" font-size="14.00" fill="#000000">PageHeaderComponent</text>
</g>
<!-- PageHeaderComponent&#45;&gt;ContentModule -->
<g id="edge16" class="edge">
<title>PageHeaderComponent&#45;&gt;ContentModule</title>
<path fill="none" stroke="#000000" d="M387,-122.2843C387,-143.3211 387,-175 387,-175 387,-175 1298.9779,-175 1298.9779,-175"/>
<polygon fill="#000000" stroke="#000000" points="1298.9779,-178.5001 1308.9779,-175 1298.9778,-171.5001 1298.9779,-178.5001"/>
</g>
<!-- PopupComponent -->
<g id="node17" class="node">
<title>PopupComponent</title>
<polygon fill="#ffffb3" stroke="#000000" points="294.6151,-122 177.3849,-122 177.3849,-86 294.6151,-86 294.6151,-122"/>
<text text-anchor="middle" x="236" y="-99.8" font-family="Times,serif" font-size="14.00" fill="#000000">PopupComponent</text>
</g>
<!-- PopupComponent&#45;&gt;ContentModule -->
<g id="edge17" class="edge">
<title>PopupComponent&#45;&gt;ContentModule</title>
<path fill="none" stroke="#000000" d="M236,-122.1554C236,-144.3519 236,-179 236,-179 236,-179 1298.9952,-179 1298.9952,-179"/>
<polygon fill="#000000" stroke="#000000" points="1298.9952,-182.5001 1308.9952,-179 1298.9951,-175.5001 1298.9952,-182.5001"/>
</g>
<!-- SummaryComponent -->
<g id="node18" class="node">
<title>SummaryComponent</title>
<polygon fill="#ffffb3" stroke="#000000" points="159.7716,-122 24.2284,-122 24.2284,-86 159.7716,-86 159.7716,-122"/>
<text text-anchor="middle" x="92" y="-99.8" font-family="Times,serif" font-size="14.00" fill="#000000">SummaryComponent</text>
</g>
<!-- SummaryComponent&#45;&gt;ContentModule -->
<g id="edge18" class="edge">
<title>SummaryComponent&#45;&gt;ContentModule</title>
<path fill="none" stroke="#000000" d="M92,-122.3228C92,-145.6602 92,-183 92,-183 92,-183 1298.8879,-183 1298.8879,-183"/>
<polygon fill="#000000" stroke="#000000" points="1298.8879,-186.5001 1308.8879,-183 1298.8878,-179.5001 1298.8879,-186.5001"/>
</g>
</g>
</svg>
