<?xml version="1.0" encoding="UTF-8" standalone="no"?>
<!DOCTYPE svg PUBLIC "-//W3C//DTD SVG 1.1//EN"
 "http://www.w3.org/Graphics/SVG/1.1/DTD/svg11.dtd">
<!-- Generated by graphviz version 2.40.1 (20161225.0304)
 -->
<!-- Title: dependencies Pages: 1 -->
<svg width="1426pt" height="211pt"
 viewBox="0.00 0.00 1426.00 211.00" xmlns="http://www.w3.org/2000/svg" xmlns:xlink="http://www.w3.org/1999/xlink">
<g id="graph0" class="graph" transform="scale(1 1) rotate(0) translate(4 207)">
<title>dependencies</title>
<polygon fill="#ffffff" stroke="transparent" points="-4,4 -4,-207 1422,-207 1422,4 -4,4"/>
<text text-anchor="start" x="688.0091" y="-42.4" font-family="sans-serif" font-weight="bold" font-size="14.00" fill="#000000">Legend</text>
<polygon fill="#ffffb3" stroke="transparent" points="475,-10 475,-30 495,-30 495,-10 475,-10"/>
<text text-anchor="start" x="498.629" y="-15.4" font-family="sans-serif" font-size="14.00" fill="#000000"> &#160;Declarations</text>
<polygon fill="#8dd3c7" stroke="transparent" points="588,-10 588,-30 608,-30 608,-10 588,-10"/>
<text text-anchor="start" x="611.7251" y="-15.4" font-family="sans-serif" font-size="14.00" fill="#000000"> &#160;Module</text>
<polygon fill="#80b1d3" stroke="transparent" points="674,-10 674,-30 694,-30 694,-10 674,-10"/>
<text text-anchor="start" x="697.7812" y="-15.4" font-family="sans-serif" font-size="14.00" fill="#000000"> &#160;Bootstrap</text>
<polygon fill="#fdb462" stroke="transparent" points="771,-10 771,-30 791,-30 791,-10 771,-10"/>
<text text-anchor="start" x="794.6732" y="-15.4" font-family="sans-serif" font-size="14.00" fill="#000000"> &#160;Providers</text>
<polygon fill="#fb8072" stroke="transparent" points="867,-10 867,-30 887,-30 887,-10 867,-10"/>
<text text-anchor="start" x="890.7258" y="-15.4" font-family="sans-serif" font-size="14.00" fill="#000000"> &#160;Exports</text>
<g id="clust1" class="cluster">
<title>cluster_ContentModule</title>
<polygon fill="none" stroke="#000000" stroke-dasharray="1,5" points="8,-70 8,-195 1410,-195 1410,-70 8,-70"/>
</g>
<g id="clust2" class="cluster">
<title>cluster_ContentModule_declarations</title>
<polygon fill="none" stroke="#000000" points="16,-78 16,-130 1402,-130 1402,-78 16,-78"/>
</g>
<!-- CardDefaultComponent -->
<g id="node1" class="node">
<title>CardDefaultComponent</title>
<polygon fill="#ffffb3" stroke="#000000" points="1394.0226,-122 1243.9774,-122 1243.9774,-86 1394.0226,-86 1394.0226,-122"/>
<text text-anchor="middle" x="1319" y="-99.8" font-family="Times,serif" font-size="14.00" fill="#000000">CardDefaultComponent</text>
</g>
<!-- ContentModule -->
<g id="node10" class="node">
<title>ContentModule</title>
<polygon fill="#8dd3c7" stroke="#000000" points="723.8823,-187 720.8823,-191 699.8823,-191 696.8823,-187 620.1177,-187 620.1177,-151 723.8823,-151 723.8823,-187"/>
<text text-anchor="middle" x="672" y="-164.8" font-family="Times,serif" font-size="14.00" fill="#000000">ContentModule</text>
</g>
<!-- CardDefaultComponent&#45;&gt;ContentModule -->
<g id="edge1" class="edge">
<title>CardDefaultComponent&#45;&gt;ContentModule</title>
<path fill="none" stroke="#000000" d="M1319,-122.0109C1319,-144.4852 1319,-180 1319,-180 1319,-180 734.1256,-180 734.1256,-180"/>
<polygon fill="#000000" stroke="#000000" points="734.1256,-176.5001 724.1256,-180 734.1255,-183.5001 734.1256,-176.5001"/>
</g>
<!-- CardFormComponent -->
<g id="node2" class="node">
<title>CardFormComponent</title>
<polygon fill="#ffffb3" stroke="#000000" points="1225.3781,-122 1086.6219,-122 1086.6219,-86 1225.3781,-86 1225.3781,-122"/>
<text text-anchor="middle" x="1156" y="-99.8" font-family="Times,serif" font-size="14.00" fill="#000000">CardFormComponent</text>
</g>
<!-- CardFormComponent&#45;&gt;ContentModule -->
<g id="edge2" class="edge">
<title>CardFormComponent&#45;&gt;ContentModule</title>
<path fill="none" stroke="#000000" d="M1156,-122.1289C1156,-142.5724 1156,-173 1156,-173 1156,-173 734.2563,-173 734.2563,-173"/>
<polygon fill="#000000" stroke="#000000" points="734.2564,-169.5001 724.2563,-173 734.2563,-176.5001 734.2564,-169.5001"/>
</g>
<!-- CardImageComponent -->
<g id="node3" class="node">
<title>CardImageComponent</title>
<polygon fill="#ffffb3" stroke="#000000" points="1068.5254,-122 925.4746,-122 925.4746,-86 1068.5254,-86 1068.5254,-122"/>
<text text-anchor="middle" x="997" y="-99.8" font-family="Times,serif" font-size="14.00" fill="#000000">CardImageComponent</text>
</g>
<!-- CardImageComponent&#45;&gt;ContentModule -->
<g id="edge3" class="edge">
<title>CardImageComponent&#45;&gt;ContentModule</title>
<path fill="none" stroke="#000000" d="M997,-122.2667C997,-140.5552 997,-166 997,-166 997,-166 734.2169,-166 734.2169,-166"/>
<polygon fill="#000000" stroke="#000000" points="734.2169,-162.5001 724.2169,-166 734.2168,-169.5001 734.2169,-162.5001"/>
</g>
<!-- CardTmplComponent -->
<g id="node4" class="node">
<title>CardTmplComponent</title>
<polygon fill="#ffffb3" stroke="#000000" points="907.3781,-122 768.6219,-122 768.6219,-86 907.3781,-86 907.3781,-122"/>
<text text-anchor="middle" x="838" y="-99.8" font-family="Times,serif" font-size="14.00" fill="#000000">CardTmplComponent</text>
</g>
<!-- CardTmplComponent&#45;&gt;ContentModule -->
<g id="edge4" class="edge">
<title>CardTmplComponent&#45;&gt;ContentModule</title>
<path fill="none" stroke="#000000" d="M838,-122.0091C838,-138.0494 838,-159 838,-159 838,-159 734.068,-159 734.068,-159"/>
<polygon fill="#000000" stroke="#000000" points="734.068,-155.5001 724.068,-159 734.0679,-162.5001 734.068,-155.5001"/>
</g>
<!-- ConfirmationComponent -->
<g id="node5" class="node">
<title>ConfirmationComponent</title>
<polygon fill="#ffffb3" stroke="#000000" points="750.2674,-122 593.7326,-122 593.7326,-86 750.2674,-86 750.2674,-122"/>
<text text-anchor="middle" x="672" y="-99.8" font-family="Times,serif" font-size="14.00" fill="#000000">ConfirmationComponent</text>
</g>
<!-- ConfirmationComponent&#45;&gt;ContentModule -->
<g id="edge5" class="edge">
<title>ConfirmationComponent&#45;&gt;ContentModule</title>
<path fill="none" stroke="#000000" d="M672,-122.1061C672,-122.1061 672,-140.991 672,-140.991"/>
<polygon fill="#000000" stroke="#000000" points="668.5001,-140.9909 672,-150.991 675.5001,-140.991 668.5001,-140.9909"/>
</g>
<!-- FrontpageComponent -->
<g id="node6" class="node">
<title>FrontpageComponent</title>
<polygon fill="#ffffb3" stroke="#000000" points="576.0954,-122 437.9046,-122 437.9046,-86 576.0954,-86 576.0954,-122"/>
<text text-anchor="middle" x="507" y="-99.8" font-family="Times,serif" font-size="14.00" fill="#000000">FrontpageComponent</text>
</g>
<!-- FrontpageComponent&#45;&gt;ContentModule -->
<g id="edge6" class="edge">
<title>FrontpageComponent&#45;&gt;ContentModule</title>
<path fill="none" stroke="#000000" d="M507,-122.0091C507,-138.0494 507,-159 507,-159 507,-159 609.793,-159 609.793,-159"/>
<polygon fill="#000000" stroke="#000000" points="609.793,-162.5001 619.793,-159 609.7929,-155.5001 609.793,-162.5001"/>
</g>
<!-- Page2Component -->
<g id="node7" class="node">
<title>Page2Component</title>
<polygon fill="#ffffb3" stroke="#000000" points="419.5451,-122 304.4549,-122 304.4549,-86 419.5451,-86 419.5451,-122"/>
<text text-anchor="middle" x="362" y="-99.8" font-family="Times,serif" font-size="14.00" fill="#000000">Page2Component</text>
</g>
<!-- Page2Component&#45;&gt;ContentModule -->
<g id="edge7" class="edge">
<title>Page2Component&#45;&gt;ContentModule</title>
<path fill="none" stroke="#000000" d="M362,-122.2667C362,-140.5552 362,-166 362,-166 362,-166 610.113,-166 610.113,-166"/>
<polygon fill="#000000" stroke="#000000" points="610.113,-169.5001 620.113,-166 610.1129,-162.5001 610.113,-169.5001"/>
</g>
<!-- PageComponent -->
<g id="node8" class="node">
<title>PageComponent</title>
<polygon fill="#ffffb3" stroke="#000000" points="286.0452,-122 177.9548,-122 177.9548,-86 286.0452,-86 286.0452,-122"/>
<text text-anchor="middle" x="232" y="-99.8" font-family="Times,serif" font-size="14.00" fill="#000000">PageComponent</text>
</g>
<!-- PageComponent&#45;&gt;ContentModule -->
<g id="edge8" class="edge">
<title>PageComponent&#45;&gt;ContentModule</title>
<path fill="none" stroke="#000000" d="M232,-122.1289C232,-142.5724 232,-173 232,-173 232,-173 609.7984,-173 609.7984,-173"/>
<polygon fill="#000000" stroke="#000000" points="609.7984,-176.5001 619.7984,-173 609.7983,-169.5001 609.7984,-176.5001"/>
</g>
<!-- SummaryComponent -->
<g id="node9" class="node">
<title>SummaryComponent</title>
<polygon fill="#ffffb3" stroke="#000000" points="159.7716,-122 24.2284,-122 24.2284,-86 159.7716,-86 159.7716,-122"/>
<text text-anchor="middle" x="92" y="-99.8" font-family="Times,serif" font-size="14.00" fill="#000000">SummaryComponent</text>
</g>
<!-- SummaryComponent&#45;&gt;ContentModule -->
<g id="edge9" class="edge">
<title>SummaryComponent&#45;&gt;ContentModule</title>
<path fill="none" stroke="#000000" d="M92,-122.0109C92,-144.4852 92,-180 92,-180 92,-180 610.0184,-180 610.0184,-180"/>
<polygon fill="#000000" stroke="#000000" points="610.0185,-183.5001 620.0184,-180 610.0184,-176.5001 610.0185,-183.5001"/>
</g>
</g>
</svg>
