<?xml version="1.0" encoding="UTF-8" standalone="no"?>
<!DOCTYPE svg PUBLIC "-//W3C//DTD SVG 1.1//EN"
 "http://www.w3.org/Graphics/SVG/1.1/DTD/svg11.dtd">
<!-- Generated by graphviz version 2.40.1 (20161225.0304)
 -->
<!-- Title: dependencies Pages: 1 -->
<svg width="2569pt" height="290pt"
 viewBox="0.00 0.00 2569.00 290.00" xmlns="http://www.w3.org/2000/svg" xmlns:xlink="http://www.w3.org/1999/xlink">
<g id="graph0" class="graph" transform="scale(1 1) rotate(0) translate(4 286)">
<title>dependencies</title>
<polygon fill="#ffffff" stroke="transparent" points="-4,4 -4,-286 2565,-286 2565,4 -4,4"/>
<text text-anchor="start" x="1259.5091" y="-42.4" font-family="sans-serif" font-weight="bold" font-size="14.00" fill="#000000">Legend</text>
<polygon fill="#ffffb3" stroke="transparent" points="1046.5,-10 1046.5,-30 1066.5,-30 1066.5,-10 1046.5,-10"/>
<text text-anchor="start" x="1070.129" y="-15.4" font-family="sans-serif" font-size="14.00" fill="#000000"> &#160;Declarations</text>
<polygon fill="#8dd3c7" stroke="transparent" points="1159.5,-10 1159.5,-30 1179.5,-30 1179.5,-10 1159.5,-10"/>
<text text-anchor="start" x="1183.2251" y="-15.4" font-family="sans-serif" font-size="14.00" fill="#000000"> &#160;Module</text>
<polygon fill="#80b1d3" stroke="transparent" points="1245.5,-10 1245.5,-30 1265.5,-30 1265.5,-10 1245.5,-10"/>
<text text-anchor="start" x="1269.2812" y="-15.4" font-family="sans-serif" font-size="14.00" fill="#000000"> &#160;Bootstrap</text>
<polygon fill="#fdb462" stroke="transparent" points="1342.5,-10 1342.5,-30 1362.5,-30 1362.5,-10 1342.5,-10"/>
<text text-anchor="start" x="1366.1732" y="-15.4" font-family="sans-serif" font-size="14.00" fill="#000000"> &#160;Providers</text>
<polygon fill="#fb8072" stroke="transparent" points="1438.5,-10 1438.5,-30 1458.5,-30 1458.5,-10 1438.5,-10"/>
<text text-anchor="start" x="1462.2258" y="-15.4" font-family="sans-serif" font-size="14.00" fill="#000000"> &#160;Exports</text>
<g id="clust1" class="cluster">
<title>cluster_AppModule</title>
<polygon fill="none" stroke="#000000" stroke-dasharray="1,5" points="8,-70 8,-274 528,-274 528,-70 8,-70"/>
</g>
<g id="clust2" class="cluster">
<title>cluster_AppModule_declarations</title>
<polygon fill="none" stroke="#000000" points="16,-78 16,-130 282,-130 282,-78 16,-78"/>
</g>
<g id="clust5" class="cluster">
<title>cluster_AppModule_imports</title>
<polygon fill="none" stroke="#000000" points="290,-78 290,-130 520,-130 520,-78 290,-78"/>
</g>
<g id="clust7" class="cluster">
<title>cluster_AppModule_bootstrap</title>
<polygon fill="none" stroke="#000000" points="221,-214 221,-266 345,-266 345,-214 221,-214"/>
</g>
<g id="clust9" class="cluster">
<title>cluster_ContentModule</title>
<polygon fill="none" stroke="#000000" stroke-dasharray="1,5" points="1152,-70 1152,-198 2553,-198 2553,-70 1152,-70"/>
</g>
<g id="clust10" class="cluster">
<title>cluster_ContentModule_declarations</title>
<polygon fill="none" stroke="#000000" points="1160,-78 1160,-130 2545,-130 2545,-78 1160,-78"/>
</g>
<g id="clust24" class="cluster">
<title>cluster_FooterModule</title>
<polygon fill="none" stroke="#000000" stroke-dasharray="1,5" points="536,-138 536,-206 832,-206 832,-138 536,-138"/>
</g>
<g id="clust25" class="cluster">
<title>cluster_FooterModule_declarations</title>
<polygon fill="none" stroke="#000000" points="690,-146 690,-198 824,-198 824,-146 690,-146"/>
</g>
<g id="clust28" class="cluster">
<title>cluster_FooterModule_exports</title>
<polygon fill="none" stroke="#000000" points="544,-146 544,-198 682,-198 682,-146 544,-146"/>
</g>
<g id="clust31" class="cluster">
<title>cluster_HeaderModule</title>
<polygon fill="none" stroke="#000000" stroke-dasharray="1,5" points="840,-138 840,-206 1144,-206 1144,-138 840,-138"/>
</g>
<g id="clust32" class="cluster">
<title>cluster_HeaderModule_declarations</title>
<polygon fill="none" stroke="#000000" points="998,-146 998,-198 1136,-198 1136,-146 998,-146"/>
</g>
<g id="clust35" class="cluster">
<title>cluster_HeaderModule_exports</title>
<polygon fill="none" stroke="#000000" points="848,-146 848,-198 990,-198 990,-146 848,-146"/>
</g>
<!-- AppComponent -->
<g id="node1" class="node">
<title>AppComponent</title>
<polygon fill="#ffffb3" stroke="#000000" points="273.9399,-122 168.0601,-122 168.0601,-86 273.9399,-86 273.9399,-122"/>
<text text-anchor="middle" x="221" y="-99.8" font-family="Times,serif" font-size="14.00" fill="#000000">AppComponent</text>
</g>
<!-- AppModule -->
<g id="node3" class="node">
<title>AppModule</title>
<polygon fill="#8dd3c7" stroke="#000000" points="324.6571,-190 321.6571,-194 300.6571,-194 297.6571,-190 241.3429,-190 241.3429,-154 324.6571,-154 324.6571,-190"/>
<text text-anchor="middle" x="283" y="-167.8" font-family="Times,serif" font-size="14.00" fill="#000000">AppModule</text>
</g>
<!-- AppComponent&#45;&gt;AppModule -->
<g id="edge1" class="edge">
<title>AppComponent&#45;&gt;AppModule</title>
<path fill="none" stroke="#000000" d="M257.4457,-122.2228C257.4457,-122.2228 257.4457,-143.7269 257.4457,-143.7269"/>
<polygon fill="#000000" stroke="#000000" points="253.9457,-143.7269 257.4457,-153.7269 260.9457,-143.727 253.9457,-143.7269"/>
</g>
<!-- ContentComponent -->
<g id="node2" class="node">
<title>ContentComponent</title>
<polygon fill="#ffffb3" stroke="#000000" points="149.6652,-122 24.3348,-122 24.3348,-86 149.6652,-86 149.6652,-122"/>
<text text-anchor="middle" x="87" y="-99.8" font-family="Times,serif" font-size="14.00" fill="#000000">ContentComponent</text>
</g>
<!-- ContentComponent&#45;&gt;AppModule -->
<g id="edge2" class="edge">
<title>ContentComponent&#45;&gt;AppModule</title>
<path fill="none" stroke="#000000" d="M87,-122.2228C87,-142.3652 87,-172 87,-172 87,-172 230.9531,-172 230.9531,-172"/>
<polygon fill="#000000" stroke="#000000" points="230.9531,-175.5001 240.9531,-172 230.953,-168.5001 230.9531,-175.5001"/>
</g>
<!-- AppComponent  -->
<g id="node6" class="node">
<title>AppComponent </title>
<polygon fill="#80b1d3" stroke="#000000" points="337.439,-258 228.561,-258 228.561,-222 337.439,-222 337.439,-258"/>
<text text-anchor="middle" x="283" y="-235.8" font-family="Times,serif" font-size="14.00" fill="#000000">AppComponent </text>
</g>
<!-- AppModule&#45;&gt;AppComponent  -->
<g id="edge5" class="edge">
<title>AppModule&#45;&gt;AppComponent </title>
<path fill="none" stroke="#000000" stroke-dasharray="1,5" d="M283,-190.2228C283,-190.2228 283,-211.7269 283,-211.7269"/>
<polygon fill="#000000" stroke="#000000" points="279.5001,-211.7269 283,-221.7269 286.5001,-211.727 279.5001,-211.7269"/>
</g>
<!-- FooterModule -->
<g id="node4" class="node">
<title>FooterModule</title>
<polygon fill="#8dd3c7" stroke="#000000" points="394.0983,-122 391.0983,-126 370.0983,-126 367.0983,-122 297.9017,-122 297.9017,-86 394.0983,-86 394.0983,-122"/>
<text text-anchor="middle" x="346" y="-99.8" font-family="Times,serif" font-size="14.00" fill="#000000">FooterModule</text>
</g>
<!-- FooterModule&#45;&gt;AppModule -->
<g id="edge3" class="edge">
<title>FooterModule&#45;&gt;AppModule</title>
<path fill="none" stroke="#000000" d="M311.3896,-122.2228C311.3896,-122.2228 311.3896,-143.7269 311.3896,-143.7269"/>
<polygon fill="#000000" stroke="#000000" points="307.8896,-143.7269 311.3896,-153.7269 314.8896,-143.727 307.8896,-143.7269"/>
</g>
<!-- FooterComponent  -->
<g id="node18" class="node">
<title>FooterComponent </title>
<polygon fill="#fb8072" stroke="#000000" points="673.8814,-190 552.1186,-190 552.1186,-154 673.8814,-154 673.8814,-190"/>
<text text-anchor="middle" x="613" y="-167.8" font-family="Times,serif" font-size="14.00" fill="#000000">FooterComponent </text>
</g>
<!-- FooterModule&#45;&gt;FooterComponent  -->
<g id="edge16" class="edge">
<title>FooterModule&#45;&gt;FooterComponent </title>
<path fill="none" stroke="#000000" stroke-dasharray="5,2" d="M375.1892,-122.2667C375.1892,-140.5552 375.1892,-166 375.1892,-166 375.1892,-166 542.0666,-166 542.0666,-166"/>
<polygon fill="#000000" stroke="#000000" points="542.0667,-169.5001 552.0666,-166 542.0666,-162.5001 542.0667,-169.5001"/>
</g>
<!-- HeaderModule -->
<g id="node5" class="node">
<title>HeaderModule</title>
<polygon fill="#8dd3c7" stroke="#000000" points="511.9608,-122 508.9608,-126 487.9608,-126 484.9608,-122 412.0392,-122 412.0392,-86 511.9608,-86 511.9608,-122"/>
<text text-anchor="middle" x="462" y="-99.8" font-family="Times,serif" font-size="14.00" fill="#000000">HeaderModule</text>
</g>
<!-- HeaderModule&#45;&gt;AppModule -->
<g id="edge4" class="edge">
<title>HeaderModule&#45;&gt;AppModule</title>
<path fill="none" stroke="#000000" d="M462,-122.2921C462,-144.2057 462,-178 462,-178 462,-178 334.9675,-178 334.9675,-178"/>
<polygon fill="#000000" stroke="#000000" points="334.9676,-174.5001 324.9675,-178 334.9675,-181.5001 334.9676,-174.5001"/>
</g>
<!-- HeaderComponent  -->
<g id="node20" class="node">
<title>HeaderComponent </title>
<polygon fill="#fb8072" stroke="#000000" points="981.7436,-190 856.2564,-190 856.2564,-154 981.7436,-154 981.7436,-190"/>
<text text-anchor="middle" x="919" y="-167.8" font-family="Times,serif" font-size="14.00" fill="#000000">HeaderComponent </text>
</g>
<!-- HeaderModule&#45;&gt;HeaderComponent  -->
<g id="edge18" class="edge">
<title>HeaderModule&#45;&gt;HeaderComponent </title>
<path fill="none" stroke="#000000" stroke-dasharray="5,2" d="M512.2143,-110C630.9304,-110 919,-110 919,-110 919,-110 919,-143.7333 919,-143.7333"/>
<polygon fill="#000000" stroke="#000000" points="915.5001,-143.7333 919,-153.7333 922.5001,-143.7333 915.5001,-143.7333"/>
</g>
<!-- CardDefaultComponent -->
<g id="node7" class="node">
<title>CardDefaultComponent</title>
<polygon fill="#ffffb3" stroke="#000000" points="1318.0226,-122 1167.9774,-122 1167.9774,-86 1318.0226,-86 1318.0226,-122"/>
<text text-anchor="middle" x="1243" y="-99.8" font-family="Times,serif" font-size="14.00" fill="#000000">CardDefaultComponent</text>
</g>
<!-- ContentModule -->
<g id="node16" class="node">
<title>ContentModule</title>
<polygon fill="#8dd3c7" stroke="#000000" points="1870.8823,-190 1867.8823,-194 1846.8823,-194 1843.8823,-190 1767.1177,-190 1767.1177,-154 1870.8823,-154 1870.8823,-190"/>
<text text-anchor="middle" x="1819" y="-167.8" font-family="Times,serif" font-size="14.00" fill="#000000">ContentModule</text>
</g>
<!-- CardDefaultComponent&#45;&gt;ContentModule -->
<g id="edge6" class="edge">
<title>CardDefaultComponent&#45;&gt;ContentModule</title>
<path fill="none" stroke="#000000" d="M1243,-122.3228C1243,-145.6602 1243,-183 1243,-183 1243,-183 1756.8679,-183 1756.8679,-183"/>
<polygon fill="#000000" stroke="#000000" points="1756.868,-186.5001 1766.8679,-183 1756.8679,-179.5001 1756.868,-186.5001"/>
</g>
<!-- CardFormComponent -->
<g id="node8" class="node">
<title>CardFormComponent</title>
<polygon fill="#ffffb3" stroke="#000000" points="2537.3781,-122 2398.6219,-122 2398.6219,-86 2537.3781,-86 2537.3781,-122"/>
<text text-anchor="middle" x="2468" y="-99.8" font-family="Times,serif" font-size="14.00" fill="#000000">CardFormComponent</text>
</g>
<!-- CardFormComponent&#45;&gt;ContentModule -->
<g id="edge7" class="edge">
<title>CardFormComponent&#45;&gt;ContentModule</title>
<path fill="none" stroke="#000000" d="M2468,-122.3228C2468,-145.6602 2468,-183 2468,-183 2468,-183 1881.0133,-183 1881.0133,-183"/>
<polygon fill="#000000" stroke="#000000" points="1881.0134,-179.5001 1871.0133,-183 1881.0133,-186.5001 1881.0134,-179.5001"/>
</g>
<!-- CardImageComponent -->
<g id="node9" class="node">
<title>CardImageComponent</title>
<polygon fill="#ffffb3" stroke="#000000" points="2380.5254,-122 2237.4746,-122 2237.4746,-86 2380.5254,-86 2380.5254,-122"/>
<text text-anchor="middle" x="2309" y="-99.8" font-family="Times,serif" font-size="14.00" fill="#000000">CardImageComponent</text>
</g>
<!-- CardImageComponent&#45;&gt;ContentModule -->
<g id="edge8" class="edge">
<title>CardImageComponent&#45;&gt;ContentModule</title>
<path fill="none" stroke="#000000" d="M2309,-122.1686C2309,-143.498 2309,-176 2309,-176 2309,-176 1880.9747,-176 1880.9747,-176"/>
<polygon fill="#000000" stroke="#000000" points="1880.9747,-172.5001 1870.9747,-176 1880.9747,-179.5001 1880.9747,-172.5001"/>
</g>
<!-- CardTmplComponent -->
<g id="node10" class="node">
<title>CardTmplComponent</title>
<polygon fill="#ffffb3" stroke="#000000" points="2219.3781,-122 2080.6219,-122 2080.6219,-86 2219.3781,-86 2219.3781,-122"/>
<text text-anchor="middle" x="2150" y="-99.8" font-family="Times,serif" font-size="14.00" fill="#000000">CardTmplComponent</text>
</g>
<!-- CardTmplComponent&#45;&gt;ContentModule -->
<g id="edge9" class="edge">
<title>CardTmplComponent&#45;&gt;ContentModule</title>
<path fill="none" stroke="#000000" d="M2150,-122.1061C2150,-141.3391 2150,-169 2150,-169 2150,-169 1881.0829,-169 1881.0829,-169"/>
<polygon fill="#000000" stroke="#000000" points="1881.0829,-165.5001 1871.0829,-169 1881.0828,-172.5001 1881.0829,-165.5001"/>
</g>
<!-- ConfirmationComponent -->
<g id="node11" class="node">
<title>ConfirmationComponent</title>
<polygon fill="#ffffb3" stroke="#000000" points="2062.2674,-122 1905.7326,-122 1905.7326,-86 2062.2674,-86 2062.2674,-122"/>
<text text-anchor="middle" x="1984" y="-99.8" font-family="Times,serif" font-size="14.00" fill="#000000">ConfirmationComponent</text>
</g>
<!-- ConfirmationComponent&#45;&gt;ContentModule -->
<g id="edge10" class="edge">
<title>ConfirmationComponent&#45;&gt;ContentModule</title>
<path fill="none" stroke="#000000" d="M1984,-122.0336C1984,-139.0597 1984,-162 1984,-162 1984,-162 1881.207,-162 1881.207,-162"/>
<polygon fill="#000000" stroke="#000000" points="1881.2071,-158.5001 1871.207,-162 1881.207,-165.5001 1881.2071,-158.5001"/>
</g>
<!-- FrontpageComponent -->
<g id="node12" class="node">
<title>FrontpageComponent</title>
<polygon fill="#ffffb3" stroke="#000000" points="1888.0954,-122 1749.9046,-122 1749.9046,-86 1888.0954,-86 1888.0954,-122"/>
<text text-anchor="middle" x="1819" y="-99.8" font-family="Times,serif" font-size="14.00" fill="#000000">FrontpageComponent</text>
</g>
<!-- FrontpageComponent&#45;&gt;ContentModule -->
<g id="edge11" class="edge">
<title>FrontpageComponent&#45;&gt;ContentModule</title>
<path fill="none" stroke="#000000" d="M1819,-122.2228C1819,-122.2228 1819,-143.7269 1819,-143.7269"/>
<polygon fill="#000000" stroke="#000000" points="1815.5001,-143.7269 1819,-153.7269 1822.5001,-143.727 1815.5001,-143.7269"/>
</g>
<!-- Page2Component -->
<g id="node13" class="node">
<title>Page2Component</title>
<polygon fill="#ffffb3" stroke="#000000" points="1731.5451,-122 1616.4549,-122 1616.4549,-86 1731.5451,-86 1731.5451,-122"/>
<text text-anchor="middle" x="1674" y="-99.8" font-family="Times,serif" font-size="14.00" fill="#000000">Page2Component</text>
</g>
<!-- Page2Component&#45;&gt;ContentModule -->
<g id="edge12" class="edge">
<title>Page2Component&#45;&gt;ContentModule</title>
<path fill="none" stroke="#000000" d="M1674,-122.0336C1674,-139.0597 1674,-162 1674,-162 1674,-162 1757.0612,-162 1757.0612,-162"/>
<polygon fill="#000000" stroke="#000000" points="1757.0613,-165.5001 1767.0612,-162 1757.0612,-158.5001 1757.0613,-165.5001"/>
</g>
<!-- PageComponent -->
<g id="node14" class="node">
<title>PageComponent</title>
<polygon fill="#ffffb3" stroke="#000000" points="1598.0452,-122 1489.9548,-122 1489.9548,-86 1598.0452,-86 1598.0452,-122"/>
<text text-anchor="middle" x="1544" y="-99.8" font-family="Times,serif" font-size="14.00" fill="#000000">PageComponent</text>
</g>
<!-- PageComponent&#45;&gt;ContentModule -->
<g id="edge13" class="edge">
<title>PageComponent&#45;&gt;ContentModule</title>
<path fill="none" stroke="#000000" d="M1544,-122.1061C1544,-141.3391 1544,-169 1544,-169 1544,-169 1756.9513,-169 1756.9513,-169"/>
<polygon fill="#000000" stroke="#000000" points="1756.9513,-172.5001 1766.9513,-169 1756.9513,-165.5001 1756.9513,-172.5001"/>
</g>
<!-- SummaryComponent -->
<g id="node15" class="node">
<title>SummaryComponent</title>
<polygon fill="#ffffb3" stroke="#000000" points="1471.7716,-122 1336.2284,-122 1336.2284,-86 1471.7716,-86 1471.7716,-122"/>
<text text-anchor="middle" x="1404" y="-99.8" font-family="Times,serif" font-size="14.00" fill="#000000">SummaryComponent</text>
</g>
<!-- SummaryComponent&#45;&gt;ContentModule -->
<g id="edge14" class="edge">
<title>SummaryComponent&#45;&gt;ContentModule</title>
<path fill="none" stroke="#000000" d="M1404,-122.1686C1404,-143.498 1404,-176 1404,-176 1404,-176 1756.8602,-176 1756.8602,-176"/>
<polygon fill="#000000" stroke="#000000" points="1756.8602,-179.5001 1766.8602,-176 1756.8601,-172.5001 1756.8602,-179.5001"/>
</g>
<!-- FooterComponent -->
<g id="node17" class="node">
<title>FooterComponent</title>
<polygon fill="#ffffb3" stroke="#000000" points="815.8809,-190 698.1191,-190 698.1191,-154 815.8809,-154 815.8809,-190"/>
<text text-anchor="middle" x="757" y="-167.8" font-family="Times,serif" font-size="14.00" fill="#000000">FooterComponent</text>
</g>
<!-- FooterComponent&#45;&gt;FooterModule -->
<g id="edge15" class="edge">
<title>FooterComponent&#45;&gt;FooterModule</title>
<path fill="none" stroke="#000000" d="M757,-153.8056C757,-145.7218 757,-138 757,-138 757,-138 356.3294,-138 356.3294,-138 356.3294,-138 356.3294,-132.1944 356.3294,-132.1944"/>
<polygon fill="#000000" stroke="#000000" points="359.8295,-132.1944 356.3294,-122.1944 352.8295,-132.1945 359.8295,-132.1944"/>
</g>
<!-- HeaderComponent -->
<g id="node19" class="node">
<title>HeaderComponent</title>
<polygon fill="#ffffb3" stroke="#000000" points="1127.7437,-190 1006.2563,-190 1006.2563,-154 1127.7437,-154 1127.7437,-190"/>
<text text-anchor="middle" x="1067" y="-167.8" font-family="Times,serif" font-size="14.00" fill="#000000">HeaderComponent</text>
</g>
<!-- HeaderComponent&#45;&gt;HeaderModule -->
<g id="edge17" class="edge">
<title>HeaderComponent&#45;&gt;HeaderModule</title>
<path fill="none" stroke="#000000" d="M1067,-153.7079C1067,-131.7943 1067,-98 1067,-98 1067,-98 522.0244,-98 522.0244,-98"/>
<polygon fill="#000000" stroke="#000000" points="522.0244,-94.5001 512.0244,-98 522.0244,-101.5001 522.0244,-94.5001"/>
</g>
</g>
</svg>
